<?xml version="1.0" encoding="UTF-8"?> <svg xmlns="http://www.w3.org/2000/svg" width="36" height="31" viewBox="0 0 36 31" fill="none"><path d="M33.9 23.67C33.8 21.83 33.73 19.99 33.66 18.15C33.66 17.8 33.66 17.45 33.67 17.09C33.7 14.83 33.73 12.56 33.76 10.3C33.78 8.53 33.81 6.76 33.83 4.99C33.84 4.19 33.88 3.38 33.86 2.57C33.86 2.56 33.86 2.55 33.86 2.54C33.86 2.37 33.72 2.24 33.56 2.24C33.32 2.24 33.08 2.24 32.84 2.23L30.88 2.2C29.91 2.18 28.94 2.17 27.97 2.15C27.02 2.13 26.07 2.12 25.12 2.1L24.5 2.07C23.3 2.01 22.1 1.95 20.91 1.89C19.7 1.83 18.48 1.77 17.27 1.71C16.14 1.65 15.02 1.6 13.89 1.54L11.03 1.4C10.34 1.37 9.66001 1.33 8.97001 1.3C8.65001 1.28 8.32001 1.26 7.99001 1.25C7.98001 1.25 7.96001 1.25 7.95001 1.25C7.82001 1.25 7.69001 1.35 7.66001 1.47C7.63001 1.59 7.59001 1.71 7.56001 1.83C7.26001 1.83 6.97001 1.81 6.67001 1.82C6.65001 1.82 6.64001 1.82 6.62001 1.82C6.44001 1.82 6.33001 1.96 6.32001 2.12C6.29001 2.36 6.27001 2.59 6.24001 2.83C6.17001 3.47 6.09001 4.11 6.02001 4.75C5.91001 5.69 5.80001 6.63 5.70001 7.58C5.63001 8.21 5.56001 8.84 5.48001 9.46C5.13001 10.77 4.78001 12.08 4.43001 13.39C4.63001 11.83 4.83001 10.26 5.02001 8.7C5.24001 6.95 5.46001 5.2 5.68001 3.45C5.70001 3.29 5.53001 3.15 5.38001 3.15C5.20001 3.15 5.10001 3.29 5.08001 3.45C4.69001 6.57 4.29001 9.68 3.90001 12.8C3.68001 14.54 3.46001 16.27 3.24001 18.01C3.06001 18.74 2.87001 19.47 2.69001 20.2C2.27001 21.92 1.86001 23.64 1.50001 25.37C1.47001 25.54 1.43001 25.7 1.40001 25.87C1.37001 26.03 1.45001 26.2 1.61001 26.24C1.76001 26.28 1.95001 26.19 1.98001 26.03C2.15001 25.14 2.35001 24.25 2.55001 23.37C2.38001 24.71 2.21001 26.06 2.04001 27.4C2.02001 27.56 2.20001 27.7 2.34001 27.7C2.68001 27.7 3.02001 27.7 3.37001 27.71C3.34001 27.95 3.31001 28.19 3.29001 28.42C3.29001 28.43 3.29001 28.45 3.29001 28.46C3.27001 28.62 3.44001 28.76 3.59001 28.76C5.50001 28.78 7.42001 28.81 9.33001 28.86C11.34 28.91 13.35 28.97 15.35 29.03C17.38 29.09 19.41 29.16 21.45 29.22C23.47 29.28 25.48 29.34 27.5 29.39C27.53 29.39 27.55 29.39 27.58 29.39C29.44 29.62 31.3 29.88 33.15 30.16C33.34 30.19 33.53 30.08 33.53 29.87C33.53 29.75 33.53 29.63 33.53 29.5C33.68 29.5 33.83 29.5 33.97 29.5C34.12 29.5 34.29 29.36 34.27 29.2C34.09 27.36 33.98 25.51 33.88 23.66L33.9 23.67ZM28.25 28.81C28.03 28.81 27.81 28.8 27.59 28.79C25.49 28.53 23.38 28.29 21.27 28.09C17.25 27.7 13.22 27.42 9.18001 27.26C7.48001 27.19 5.77001 27.14 4.06001 27.11C4.11001 26.69 4.16001 26.26 4.21001 25.84C4.32001 24.9 4.43001 23.96 4.53001 23.01C4.66001 21.86 4.79001 20.7 4.93001 19.55C5.08001 18.29 5.22001 17.02 5.37001 15.76C5.52001 14.49 5.66001 13.22 5.81001 11.95C5.90001 11.16 5.99001 10.38 6.08001 9.59C6.16001 9.3 6.23001 9.02 6.31001 8.73C6.75001 7.11 7.19001 5.5 7.63001 3.89C7.76001 3.41 7.90001 2.93 8.03001 2.45C8.46001 2.45 8.89001 2.46 9.31001 2.47C10.28 2.49 11.25 2.5 12.22 2.52C13.4 2.54 14.57 2.56 15.75 2.58C17.04 2.6 18.33 2.62 19.62 2.64C20.93 2.66 22.23 2.68 23.54 2.7C24.07 2.7 24.6 2.72 25.14 2.73C25.78 2.76 26.41 2.79 27.05 2.83C28 2.88 28.96 2.93 29.91 2.97L31.97 3.07C32.21 3.08 32.45 3.1 32.69 3.11C32.69 3.65 32.71 4.19 32.72 4.73C32.75 6.35 32.78 7.98 32.82 9.6C32.87 11.76 32.93 13.93 33 16.09C33.02 16.78 33.05 17.48 33.07 18.17C33.05 19.88 33.03 21.58 33.01 23.29C32.99 25.16 32.97 27.03 32.96 28.9C31.4 28.88 29.83 28.85 28.27 28.81H28.25ZM6.81001 3.19C6.84001 2.94 6.88001 2.68 6.91001 2.42H7.36001C7.36001 2.42 7.39001 2.42 7.41001 2.42C7.33001 2.7 7.25001 2.99 7.17001 3.27C6.96001 4.03 6.75001 4.78 6.55001 5.54C6.55001 5.47 6.57001 5.41 6.57001 5.34C6.65001 4.62 6.74001 3.9 6.82001 3.18L6.81001 3.19ZM5.01001 13.61C4.96001 14.02 4.92001 14.42 4.87001 14.83C4.72001 16.1 4.58001 17.37 4.43001 18.64C4.29001 19.83 4.16001 21.02 4.02001 22.21C3.90001 23.22 3.79001 24.22 3.67001 25.23C3.60001 25.85 3.53001 26.48 3.46001 27.1C3.21001 27.1 2.96001 27.1 2.70001 27.09C3.08001 24.11 3.45001 21.13 3.83001 18.15C4.11001 17.06 4.39001 15.97 4.67001 14.88C4.78001 14.46 4.89001 14.03 5.00001 13.61H5.01001ZM10.08 28.28C8.15001 28.23 6.22001 28.19 4.30001 28.17C4.18001 28.17 4.06001 28.17 3.95001 28.17C3.97001 28.03 3.98001 27.9 4.00001 27.76C4.00001 27.75 4.00001 27.73 4.00001 27.72C7.49001 27.78 10.99 27.93 14.47 28.16C16.26 28.28 18.05 28.42 19.84 28.58C18.6 28.54 17.37 28.5 16.13 28.46C14.11 28.4 12.1 28.34 10.08 28.29V28.28ZM32.93 29.51V29.53C32.87 29.53 32.81 29.51 32.75 29.5C32.81 29.5 32.87 29.5 32.93 29.5V29.51ZM33.55 27.78C33.57 28.07 33.6 28.35 33.62 28.64C33.62 28.73 33.64 28.82 33.65 28.91C33.61 28.91 33.58 28.91 33.54 28.91C33.54 28.53 33.54 28.16 33.54 27.78H33.55Z" stroke="#F2B346" stroke-width="1.11" stroke-miterlimit="10"></path><path d="M11.5901 13.7804L17.6201 18.8304L33.2701 2.44043" stroke="#F9F9F9" stroke-width="4.19" stroke-miterlimit="10" stroke-linecap="round"></path></svg> 