<?xml version="1.0" encoding="UTF-8"?>
<svg id="Capa_2" data-name="Capa 2" xmlns="http://www.w3.org/2000/svg" viewBox="0 0 145.67 132.89">
  <defs>
    <style>
      .cls-1 {
        fill: #335260;
      }

      .cls-2 {
        opacity: .43;
      }
    </style>
  </defs>
  <g id="Capa_1-2" data-name="Capa 1">
    <g class="cls-2">
      <path class="cls-1" d="M12.86,72.33c-.1,5.82,1.05,11.82,2.16,17.52,1.13,5.79,2.55,11.52,4.27,17.16.84,2.76,1.74,5.51,2.72,8.21.93,2.54,1.74,5.36,3.2,7.65,1,1.56,2.46,3.19,4.35,3.6,1.86.4,3.62-.71,4.28-2.46.85-2.24.26-5.09.1-7.41-.21-2.96-.47-5.92-.79-8.87-.64-5.9-1.52-11.78-2.63-17.61-1.12-5.92-2.48-11.8-4.07-17.61-.78-2.87-1.64-5.71-2.54-8.53-.78-2.45-1.38-5.3-2.71-7.52-.97-1.63-2.79-3.48-4.87-2.76-2.47.85-2.66,4.51-3.05,6.67-1.15,6.22-1.31,12.66-.25,18.91.25,1.45,2.38,1,2.22-.43-.53-4.84-.63-9.7-.04-14.54.28-2.39.59-4.99,1.38-7.28.34-.97.73-1.16,1.5-.47.69.61,1.12,1.49,1.44,2.34,1.83,4.84,3.21,9.9,4.57,14.88,1.35,4.95,2.53,9.94,3.53,14.97,2.02,10.06,3.37,20.25,3.99,30.48.07,1.17.67,4.95-1.4,4.82-1.66-.1-2.96-2.49-3.54-3.8-2.05-4.66-3.66-9.62-5.16-14.49-1.66-5.38-3.07-10.85-4.2-16.36-.57-2.8-1.06-5.62-1.54-8.44-.49-2.9-.78-5.85-1.41-8.72-.18-.82-1.5-.82-1.52.08h0Z"/>
      <path class="cls-1" d="M24.39,127.6c2.04.88,5.83,1.29,7.64-.38.56-.52.27-1.53-.53-1.59-1.09-.08-2.15.41-3.25.46-1.14.07-2.37-.06-3.49-.2-1.03-.12-1.23,1.32-.37,1.7h0Z"/>
      <path class="cls-1" d="M21.87,123.82c1.27-.17,2.53-.37,3.79-.61,1.07-.2,2.35-.17,3.11-1.02.46-.5.33-1.16-.28-1.45-1.03-.5-2.2,0-3.27.2-1.26.25-2.5.53-3.75.84-1.3.32-.93,2.22.39,2.03h0Z"/>
      <path class="cls-1" d="M18.66,118.85c2.15-.39,4.43-.62,6.54-1.24,1.37-.4,1.01-2.31-.42-2.18-2.19.21-4.39.84-6.54,1.27-1.38.28-.97,2.4.41,2.14h0Z"/>
      <path class="cls-1" d="M16.12,111.52c1.68-.31,3.37-.58,5.04-.92.42-.09.79-.38.93-.8.16-.5.1-.81-.23-1.22-.28-.33-.74-.46-1.16-.39-1.68.3-3.35.66-5.02,1.01-1.49.3-1.05,2.59.45,2.32h0Z"/>
      <path class="cls-1" d="M12.81,102.14c1.16,0,2.32,0,3.48,0,1.06,0,2.13.21,2.97-.54.39-.35.53-1.11.1-1.49-.87-.8-1.73-.67-2.86-.68-1.16-.01-2.32-.03-3.48-.04-1.78-.03-1.99,2.76-.22,2.75h0Z"/>
      <path class="cls-1" d="M11.07,94.23c2.04.87,4.13.88,6.19.07.35-.13.62-.57.64-.94,0-.34-.04-.61-.29-.85-.28-.26-.68-.49-1.08-.37-1.56.46-3.15.47-4.69-.1-1.42-.54-2.15,1.61-.78,2.19h0Z"/>
      <path class="cls-1" d="M10.42,87.76c1.23-.25,2.47-.29,3.71-.03,1.1.23,2.09.9,3.22.76.64-.08,1.01-.89.71-1.43-1.3-2.38-5.86-2.11-8.08-1.55-1.42.35-1.02,2.55.43,2.25h0Z"/>
      <path class="cls-1" d="M8.84,81.53c1.16.02,2.32.03,3.47.05,1.04,0,2.12.26,2.92-.51.35-.35.48-.98.09-1.37-.81-.81-1.72-.63-2.8-.63-1.16,0-2.32,0-3.48,0-1.58,0-1.8,2.45-.2,2.46h0Z"/>
      <path class="cls-1" d="M7.79,76.11c1.38-.02,2.76-.05,4.15-.07,1.14-.02,2.45.2,3.3-.69.32-.33.46-.92.09-1.28-.93-.9-1.96-.7-3.18-.66-1.38.04-2.76.08-4.15.12-1.65.05-1.87,2.61-.21,2.58h0Z"/>
      <path class="cls-1" d="M8.91,70.19c1.16.03,2.32.09,3.47.1,1.01,0,2.1.11,2.87-.62.33-.31.43-.9.08-1.26-.76-.76-1.71-.73-2.74-.76-1.16-.03-2.32,0-3.48,0-1.63,0-1.85,2.49-.2,2.54h0Z"/>
      <path class="cls-1" d="M8.4,63.28c1.24.51,2.54.73,3.89.64,1.19-.07,2.71-.31,3.18-1.56.21-.57-.13-1.1-.63-1.32-.87-.4-1.8.11-2.7.21-.99.1-1.93-.08-2.85-.43-1.59-.61-2.43,1.83-.88,2.47h0Z"/>
      <path class="cls-1" d="M11.85,60.03c.79-.16,1.99-.2,2.5-.92.18-.25.11-.64-.16-.81-.74-.48-1.87-.06-2.66.08-1.06.19-.74,1.86.32,1.64h0Z"/>
      <path class="cls-1" d="M12.85,58.49c.63-.35,1.24-.68,1.87-1.02.62-.33,1.19-.55,1.5-1.19.21-.43-.2-.9-.61-.94-.66-.08-1.2.36-1.75.67-.59.33-1.17.66-1.75.98-.94.53-.21,2.02.74,1.51h0Z"/>
      <path class="cls-1" d="M26.86,126.94c-5.73-8.53-9.86-18.02-12.23-28.03-1.15-4.84-1.9-9.79-2.22-14.76-.16-2.53-.2-5.07-.14-7.61.06-2.49.48-5.03.21-7.51-.07-.64-1.04-.67-1.22-.09-.6,1.86-.62,3.81-.68,5.76-.06,2.04-.06,4.08.02,6.12.16,3.98.57,7.96,1.25,11.89,1.4,8.03,3.91,15.84,7.37,23.21,1.93,4.12,4.19,8.06,6.72,11.83.44.66,1.37-.16.93-.82h0Z"/>
      <path class="cls-1" d="M13.84,91.54c-1.86-6.94-2.55-14.13-2.19-21.31.26-5.26.5-13.54,6.07-16.17.94-.44.44-2.12-.6-1.77-6.21,2.07-6.62,10.6-6.95,16.04-.48,7.91.64,15.79,3.02,23.34.12.39.75.29.64-.12h0Z"/>
      <path class="cls-1" d="M21.61,121.79c-.28,1.88-2.75,2.77-4.43,2.6-2.45-.25-3.84-2.77-4.7-4.81-1.16-2.76-1.97-5.7-2.88-8.55-1.02-3.18-1.99-6.39-2.87-9.61-3.25-11.87-5.26-24.25-3.67-36.56.41-3.2,1.07-6.36,2.01-9.45.94-3.1,2.33-6.05,3.3-9.14.28-.89-.86-1.43-1.41-.72-1.97,2.52-3.1,5.56-4.06,8.6-.97,3.05-1.67,6.19-2.14,9.35-.97,6.48-.94,13.08-.24,19.59.82,7.52,2.56,14.93,4.66,22.19,1.08,3.7,2.24,7.37,3.47,11.02.92,2.75,1.76,5.68,3.69,7.94,1.74,2.05,4.29,3.15,6.93,2.32,2.19-.69,3.75-2.43,3.14-4.83-.11-.43-.72-.4-.79.04h0Z"/>
      <path class="cls-1" d="M32.03,118.46c-.82.97-1.11,2.08-.88,3.33.29-.1.58-.2.87-.3-1.83-4.18-4.26-8.1-6.39-12.13-2.15-4.04-4.23-8.11-6.58-12.05-.33-.56-1.17-.16-.91.45,1.82,4.31,4.01,8.42,6.25,12.51,2.16,3.96,4.22,8.07,6.87,11.72.34.47.92-.06.77-.51-.35-1-.25-1.93.28-2.85.11-.18-.14-.34-.27-.18h0Z"/>
      <path class="cls-1" d="M31.2,113.07c-1.9-3.79-4.06-7.44-6.16-11.13-1.01-1.76-2.02-3.52-3.05-5.27-1.04-1.77-1.99-3.78-3.37-5.31-.53-.58-1.31.06-1.08.73.67,1.97,1.98,3.8,3.03,5.59,1.08,1.82,2.17,3.65,3.27,5.47,2.12,3.52,4.2,7.08,6.52,10.48.33.48,1.09-.06.84-.57h0Z"/>
      <path class="cls-1" d="M28.82,104.34c-2.05-4.04-4.09-8.1-6.16-12.13-2.01-3.88-3.85-7.95-6.32-11.57-.3-.44-.89.05-.72.48,1.61,4.12,3.96,7.99,6.06,11.87,2.11,3.91,4.26,7.8,6.39,11.71.26.46,1,.11.75-.38h0Z"/>
      <path class="cls-1" d="M23.32,88.5c-2.29-5.22-4.34-10.69-7.13-15.68-.34-.62-1.22-.16-.97.49,1.97,5.36,4.78,10.47,7.26,15.61.27.55,1.1.14.85-.42h0Z"/>
      <path class="cls-1" d="M124.83,112.4c-.72-.49-1.13.52-.87,1.11.54,1.19,1.9.31,2.16-.59.27-.94.06-2.03-.03-2.98-.16-1.54-.39-3.07-.61-4.61-.4-2.79-.83-5.58-1.33-8.36-2-11.29-4.52-22.48-7.55-33.54-.87-3.15-1.78-6.31-2.73-9.44-.45-1.48-.95-2.95-1.37-4.43-.37-1.3-.57-2.68-1.87-3.3-.25-.12-.69.01-.83.27-.55,1.03-.24,1.95.14,3.02.51,1.44.98,2.9,1.43,4.36.87,2.78,1.7,5.57,2.5,8.37,1.6,5.6,3.06,11.24,4.4,16.91,1.34,5.67,2.53,11.37,3.6,17.1.53,2.86,1.06,5.72,1.55,8.59.24,1.43.47,2.87.71,4.31.07.41.71,3.7.53,3.69.27.02.4-.35.18-.5h0Z"/>
      <path class="cls-1" d="M128.48,114.27c-.24.06-.5.08-.74-.02.1.11.19.22.28.33v-.06c-.03-.17-.18-.35-.36-.41-.74-.22-1.08-.79-1.48-1.38-.11-.18-.36-.08-.43.08-.45,1.04.67,2.02,1.55,2.33.24.08.49-.02.64-.21l.02-.03c-.13.07-.26.13-.4.19.41,0,.76,0,1.15-.15.39-.13.16-.77-.23-.68h0Z"/>
      <path class="cls-1" d="M126.03,111.07c-1.32,2.01-.52,4.29,1.29,5.72,2.21,1.75,5.19,1.23,7.3-.42,2.47-1.92,3.45-5,3.64-8.01.23-3.78-.28-7.69-.71-11.44-.92-8.04-2.4-16.01-4.42-23.84-2-7.74-4.35-15.61-7.64-22.9-1.4-3.08-3.51-6.27-6.92-7.29-2.74-.82-7.22-.4-7.75,3.05-.13.8.84,1.38,1.52,1.02.89-.45,1.73-1.15,2.71-1.38,1.07-.25,2.25-.1,3.25.33,2.49,1.07,3.86,3.8,4.88,6.15,2.55,5.87,4.58,12.01,6.34,18.15,1.81,6.31,3.26,12.72,4.36,19.19.53,3.2.98,6.4,1.35,9.62.33,3.02.82,6.11.72,9.16-.1,2.94-1.13,6.41-4.17,7.56-2.59.98-5.89-1.44-5.06-4.32.11-.41-.43-.72-.68-.35h0Z"/>
      <path class="cls-1" d="M136.88,104.02c1.38,2.36,4.53,2,6.31.28,2.48-2.4,2.33-6.44,2.42-9.62.22-7.1-.2-14.27-1.23-21.29-1.99-13.61-6.52-27.28-15.31-38.06-4.45-5.45-9.96-10-16.2-13.26-6.77-3.53-14.1-5.63-21.59-6.99-7.7-1.39-15.52-2-23.32-2.55-8.74-.61-17.59-.92-25.99,2.01-14.36,5-24.41,17.75-32.72,29.85-1.09,1.59-2.04,3.15-2.9,4.88-.59,1.2,1.3,2.49,2.19,1.48,2.35-2.66,4.24-5.66,6.33-8.52,2.12-2.91,4.3-5.76,6.64-8.5,4.51-5.28,9.72-10.17,15.83-13.55,6.79-3.74,14.21-4.99,21.91-4.89,7.67.1,15.42.75,23.04,1.54,13.91,1.44,27.98,4.69,38.84,14.02,9.89,8.49,15.81,20.7,18.97,33.16,1.82,7.18,2.83,14.58,3.18,21.98.18,3.71.23,7.45.11,11.17-.05,1.81-.13,3.99-1.33,5.47-1.08,1.32-3.32,2.02-4.8,1.03-.22-.14-.54.1-.4.34h0Z"/>
      <path class="cls-1" d="M7.09,48.7c-1.46-5.68-2.63-11.25-.49-16.94,1.8-4.76,4.84-8.82,8.59-12.22,8.18-7.44,18.54-12.32,29.24-14.82,11.12-2.61,22.64-2.69,33.91-1.06,11.21,1.61,22.49,4.7,32.91,9.14,11,4.69,21.74,13.17,22.15,26.12.06,2,3.14,2.32,3.16.25.12-11.81-9.11-21.25-18.92-26.43-5.19-2.74-10.74-4.72-16.34-6.47-5.85-1.84-11.79-3.36-17.82-4.46C60.36-2.44,33.61.17,15.27,16.29c-4.38,3.86-8.54,8.77-10.25,14.45-1.73,5.75-1.96,13.06,1.73,18.12.11.16.39.02.34-.16h0Z"/>
      <path class="cls-1" d="M121.71,47.03c5.04-5.11.12-12.89-4.01-16.75-5.64-5.27-12.62-8.9-19.95-11.21-8.29-2.6-17-3.52-25.65-3.89-8.09-.35-16.39-.66-24.45.27-4.02.46-8.04,1.34-11.76,2.96-3.24,1.42-8.02,3.97-8.94,7.67-.23.92.62,1.85,1.56,1.39,1.47-.72,2.53-1.87,3.79-2.9,1.24-1.01,2.59-1.85,4.02-2.55,2.97-1.47,6.18-2.32,9.43-2.87,7.14-1.18,14.47-.91,21.68-.76,15.06.3,30.96,1.56,43.76,10.32,4.67,3.19,13.57,10.61,9.03,17.03-.64.9.68,2.13,1.49,1.31h0Z"/>
      <path class="cls-1" d="M18.35,54.72c.37-1.81-.1-3.75-.02-5.61.09-1.87.36-3.72.84-5.52.96-3.63,2.68-7.04,5.07-9.93,5.07-6.13,12.36-8.91,20.08-9.83.97-.12.82-1.55-.09-1.66-2.26-.26-4.23-.21-6.47.31-1.98.46-3.93,1.14-5.77,2.01-3.74,1.76-7.13,4.35-9.73,7.56-2.57,3.19-4.41,7-5.36,10.98-.46,1.94-.74,3.91-.79,5.91-.06,1.94-.17,4.36.86,6.06.39.64,1.23.44,1.38-.27h0Z"/>
      <path class="cls-1" d="M42.71,20.79c1.49-.15,2.97-.15,4.47-.28,1.12-.11.75-2.04-.33-1.72-1.44.43-2.81.98-4.25,1.4-.38.11-.28.65.12.61h0Z"/>
      <path class="cls-1" d="M44.93,20.05c-.56-2.92-5.11-2.05-4.54.87.56,2.92,5.11,2.05,4.54-.87h0Z"/>
      <path class="cls-1" d="M42.38,21.99c2.3.12,4.52.22,6.83.15,2.22-.06,4.43-.2,6.65-.3,4.6-.21,9.2-.35,13.81-.36,8.98-.02,17.98.37,26.86,1.79,5.02.81,10.04,1.85,15.02,2.84.79.16.94-1.02.29-1.3-8.36-3.59-17.49-4.78-26.5-5.42-9.18-.65-18.39-.44-27.57.07-2.56.15-5.14.26-7.69.49-2.64.24-5.15.66-7.74,1.14-.5.09-.47.87.05.9h0Z"/>
      <path class="cls-1" d="M14.47,40.23c-.5.57-1.59,2.21-2.38,2.32.25.12.51.24.76.37-1.42-2.55-3.11-4.88-4.83-7.23-.78-1.06-2.29.28-1.53,1.34,1.64,2.3,3.28,4.57,5.2,6.66.36.39,1.26.23,1.23-.41-.06-.95,1.31-2.16,1.85-2.85.15-.18-.15-.37-.3-.2h0Z"/>
      <path class="cls-1" d="M16.38,38.92c-.85-1.37-1.66-2.78-2.58-4.11-.76-1.11-1.49-2.64-2.78-3.15-.42-.16-1.07.17-1.04.68.07,1.4,1.16,2.47,1.97,3.55.99,1.33,2.1,2.59,3.16,3.87.54.65,1.73-.1,1.26-.84h0Z"/>
      <path class="cls-1" d="M19.15,34.67c-1.13-1.34-2.07-2.76-2.9-4.3-.69-1.25-1.1-3.04-2.24-3.91-.43-.33-1.28-.11-1.39.46-.34,1.6.79,3.38,1.61,4.71.96,1.58,2.17,3,3.48,4.3.87.87,2.26-.31,1.45-1.27h0Z"/>
      <path class="cls-1" d="M21.44,29.45c-1.41-1.17-2.55-2.59-3.36-4.23-.59-1.21-.67-3.16-2.01-3.71-.24-.1-.62-.05-.8.15-1.21,1.38.16,3.64.96,4.98,1.05,1.77,2.42,3.25,4.06,4.49,1.07.8,2.14-.86,1.15-1.69h0Z"/>
      <path class="cls-1" d="M101.87,19.44c.31-1.68.65-3.36.86-5.05.18-1.43.73-3.16.13-4.51-.3-.65-1.2-.65-1.6-.1-.86,1.17-.66,3.03-.78,4.44-.14,1.7-.15,3.41-.2,5.1-.04,1.05,1.41,1.13,1.6.13h0Z"/>
      <path class="cls-1" d="M107.92,20.84c.9-2.96,2.25-6.74,1.27-9.8-.17-.52-.8-.71-1.16-.23-1.94,2.56-1.9,6.53-2.02,9.62-.04,1.08,1.57,1.51,1.9.41h0Z"/>
      <path class="cls-1" d="M114.39,22.83c-.05-1.33.11-2.57.48-3.83.35-1.12,1.16-2.24,1.18-3.43.01-.77-.75-1.37-1.49-1.01-1.31.64-1.93,2.4-2.27,3.74-.39,1.53-.42,3.09-.24,4.65.15,1.31,2.39,1.21,2.34-.13h0Z"/>
      <path class="cls-1" d="M118.16,26.14c.82-1.19,1.65-2.39,2.48-3.58.75-1.09,1.49-2.23,1.61-3.57.05-.56-.59-1.04-1.1-.75-1.18.65-1.92,1.76-2.62,2.9-.76,1.24-1.52,2.48-2.27,3.72-.77,1.26,1.05,2.51,1.9,1.29h0Z"/>
      <path class="cls-1" d="M124.83,30.24c.85-1.94,1.78-3.91,2.2-5.99.33-1.61-2-1.79-2.6-.55-.87,1.8-1.26,3.88-1.73,5.79-.35,1.41,1.54,2.1,2.13.75h0Z"/>
      <path class="cls-1" d="M127.29,34.57c.36-.26.71-.53,1.07-.8.45-.33.87-.6,1.05-1.16.2-.65-.22-1.61-1.03-1.58-.43.02-.72.06-1.08.32-.19.14-.37.3-.56.44-.36.3-.74.59-1.11.88-.53.42-.55,1.28-.12,1.77.48.54,1.23.52,1.77.12h0Z"/>
      <path class="cls-1" d="M127.43,36.27c.95,1.37,3.06,1.91,4.5,1.02,1.02-.62.3-2.15-.83-1.68-.66.27-1.58.19-2-.46-.79-1.23-2.53-.1-1.68,1.13h0Z"/>
      <path class="cls-1" d="M126.96,114.68c1.97.8,4.02.72,6.02.01,1.61-.57,4.08-1.86,4.51-3.68.13-.54-.4-1.22-.99-.87-.65.37-1.06.94-1.62,1.44-.7.61-1.51,1.09-2.37,1.44-1.67.65-3.53.69-5.28.42-.74-.12-.9.97-.26,1.23h0Z"/>
      <path class="cls-1" d="M125.62,111.37c2.15-.66,4.32-1.28,6.45-2.03,1.79-.62,4.57-1.06,5.78-2.57.32-.4.1-1.2-.44-1.31-1.87-.4-4.15.91-5.91,1.54-2.19.78-4.34,1.68-6.5,2.55-1,.41-.44,2.13.61,1.81h0Z"/>
      <path class="cls-1" d="M125.33,104.8c2.1.31,4.21.12,6.23-.57,1.69-.57,3.96-1.58,4.46-3.49.14-.52-.25-1.06-.83-.96-1.57.29-2.88,1.52-4.36,2.11-1.7.67-3.5.86-5.31.66-1.45-.17-1.6,2.04-.18,2.25h0Z"/>
      <path class="cls-1" d="M124.14,97.7c2.22-.17,4.44-.35,6.65-.52,1.07-.09,2.12-.21,3.18-.32,1.07-.11,1.93-.09,2.78-.78.63-.5.3-1.34-.32-1.64-.87-.43-1.73-.22-2.68-.11-1.15.12-2.29.23-3.44.39-2.19.29-4.39.58-6.58.89-1.4.19-.94,2.21.41,2.11h0Z"/>
      <path class="cls-1" d="M123.14,90.47c3.71,2.16,9.76,2.61,12.57-1.21.61-.82-.38-1.64-1.17-1.36-3.38,1.2-6.61,2.38-10.05.58-1.34-.71-2.7,1.19-1.34,1.99h0Z"/>
      <path class="cls-1" d="M116.66,66.14c2.6.04,5.19.03,7.79-.06,1.25-.03,2.51-.06,3.77-.11,1.02-.03,2.02-.16,2.63-1.05.19-.29.16-.67-.06-.94-.64-.76-1.51-.8-2.46-.79-1.34,0-2.69.17-4.04.25-2.6.16-5.17.39-7.75.67-1.14.12-1.04,2,.11,2.02h0Z"/>
      <path class="cls-1" d="M115.8,61.52c2.25.06,4.49.15,6.73.17,1.08,0,2.16.02,3.23.02,1.08.01,2.09.16,3.06-.36.7-.37.95-1.57.13-2.01-1.73-.91-4.28-.42-6.21-.41-2.25.02-4.5.1-6.75.18-1.52.04-1.76,2.35-.19,2.39h0Z"/>
      <path class="cls-1" d="M116.05,57.21c1.75-.02,3.5-.02,5.25-.08,1.5-.05,3.24.2,4.51-.71.56-.4.45-1.38-.11-1.72-1.32-.81-3.2-.38-4.7-.31-1.69.09-3.38.22-5.08.34-1.4.08-1.28,2.5.14,2.48h0Z"/>
      <path class="cls-1" d="M114.65,54.15c1.73-.3,3.47-.59,5.2-.89,1.65-.28,3.34-.45,4.88-1.16.99-.46.69-2.05-.41-2.11-1.69-.09-3.32.38-4.96.73-1.72.37-3.44.74-5.16,1.1-1.48.32-1.05,2.58.45,2.32h0Z"/>
      <path class="cls-1" d="M116.03,49.32c.46-.67,1.16-1.09,1.97-1.16.38-.03.75.02,1.13-.07.12-.04.23-.08.35-.12-.18.01-.18.02,0,.02.23,0,.44.04.67.08.73.14,1.2-.91.71-1.42-1.05-1.09-2.16-1.58-3.68-1.21-1.39.32-2.6,1.16-3.35,2.39-.89,1.45,1.24,2.91,2.2,1.49h0Z"/>
      <path class="cls-1" d="M125.34,115.54c-.06-2.12-1.06-3.95-1.81-5.92-.81-2.1-1.57-4.21-2.28-6.35-1.44-4.3-2.69-8.67-3.75-13.09-2.11-8.75-3.48-17.7-4.14-26.68-.16-2.07-.32-4.17-.09-6.25.21-1.98,1.32-3.53,1.66-5.44.08-.46-.47-.97-.93-.83-3.33,1.03-3.51,6.05-3.45,8.92.09,4.53.6,9.1,1.19,13.59,1.25,9.44,3.5,18.8,6.49,27.85.83,2.53,1.73,5.04,2.68,7.52.9,2.36,1.64,5.21,3.45,7.01.31.31,1,.21.99-.32h0Z"/>
      <path class="cls-1" d="M112.43,56.94c.1-3.39.31-6.81.25-10.2-.02-1.11-1.72-1.27-1.74-.14-.05,3.41.15,6.83.26,10.24.02.78,1.21.91,1.24.1h0Z"/>
      <path class="cls-1" d="M113.24,49.68c-.13-.34-.25-.67-.37-1.01-.13-.36-.77-.24-.76.15.01.36.02.72.03,1.08,0,.37.29.69.69.61s.54-.48.41-.82h0Z"/>
      <path class="cls-1" d="M129.04,117.04c-4.19,1.63-7.88,4.1-12.3,5.17-4.48,1.09-8.82.99-13.35.39-2.22-.3-4.54-.51-6.71.19-2.2.71-3.44,2.26-4.82,4.01-2.2,2.79-6.14,3.75-9.4,2.32-3.26-1.43-4.8-5.25-4.12-8.64.72-3.59,4.05-5.89,7.63-5.87,1.82,0,3.5.64,4.88,1.82,1.63,1.37,2.9,3.16,4.76,4.25,1.85,1.08,3.97,1.41,6.07,1.55,2.51.18,5.03.21,7.54.13,5.23-.17,10.78-.62,15.81-2.13,3.29-.98,7.38-3.31,6.66-7.34-.24-1.32-2.42-1.27-2.42.14.02,4.09-5.74,4.92-8.75,5.45-5.22.92-10.52,1.28-15.81,1.08-2.39-.09-5.05-.06-7.25-1.13-2.09-1.03-3.44-3.07-5.26-4.47-2.97-2.29-7.1-2.61-10.55-1.29-7.5,2.88-8.64,13.66-2.19,18.31,3.05,2.21,7.27,2.45,10.69,1.02,1.91-.81,3.32-2.15,4.58-3.77.67-.86,1.3-1.71,2.31-2.19,1.13-.54,2.44-.56,3.67-.49,2.7.16,5.34.75,8.06.76,2.56,0,5.13-.26,7.63-.81,4.86-1.09,10.61-3.12,13.6-7.32.47-.66-.3-1.37-.97-1.11h0Z"/>
      <path class="cls-1" d="M80.37,125.65c3.51,2.56,10.26,2.03,11.98-2.53.2-.51-.49-1.01-.9-.61-1.39,1.35-2.75,2.57-4.69,3.02-1.94.45-4,.17-5.69-.9-.67-.43-1.34.55-.69,1.02h0Z"/>
      <path class="cls-1" d="M81.46,123.24c3.17.22,6.82-.59,8.8-3.27.21-.3-.15-.7-.47-.53-2.67,1.38-5.14,2.67-8.24,2.53-.82-.03-.92,1.21-.1,1.27h0Z"/>
      <path class="cls-1" d="M135.06,38.75c-.35,1.74-.27,3.53-.6,5.28-.17.92-.41,1.82-.76,2.69-.31.79-.73,1.53-.73,2.39,0,.72.74,1.39,1.47.99,1.79-1,2.41-3.74,2.64-5.64.24-2.06.04-4.32-1.35-5.94-.23-.27-.6-.08-.67.22h0Z"/>
    </g>
  </g>
</svg>