<?xml version="1.0" encoding="UTF-8"?>
<svg id="Capa_2" data-name="Capa 2" xmlns="http://www.w3.org/2000/svg" viewBox="0 0 73.35 73.35">
  <defs>
    <style>
      .cls-1 {
        fill-rule: evenodd;
      }

      .cls-1, .cls-2 {
        fill: #fff;
      }

      .cls-3 {
        fill: #0a2066;
      }
    </style>
  </defs>
  <g id="Capa_1-2" data-name="Capa 1">
    <g>
      <path class="cls-2" d="M68.35,0H5C2.25,0,0,2.25,0,5.01v63.34c0,2.76,2.25,5,5,5h63.34c2.76,0,5.01-2.24,5.01-5V5.01c0-2.76-2.25-5.01-5.01-5.01ZM71.63,68.35c0,1.8-1.48,3.28-3.28,3.28H5c-1.8,0-3.28-1.47-3.28-3.28V5.01c0-1.8,1.48-3.28,3.28-3.28h63.34c1.8,0,3.28,1.48,3.28,3.28v63.34Z"/>
      <path class="cls-3" d="M5,1.73h63.34c1.81,0,3.28,1.47,3.28,3.28v63.34c0,1.81-1.47,3.28-3.28,3.28H5.01c-1.81,0-3.28-1.47-3.28-3.28V5c0-1.81,1.47-3.28,3.28-3.28Z"/>
      <g>
        <path class="cls-2" d="M45.12,60.19c1.58-.6,2.37-1.74,2.37-3.55,0-.1,0-.2-.01-.3-.14-2.37-2.01-3.53-4.25-3.53h-6.09v12.06h2.86v-4.34h2.05l2.21,4.34h3.23l-2.37-4.69ZM42.79,58.49h-2.79v-3.56h2.79c1.1,0,1.77.51,1.77,1.76s-.62,1.8-1.77,1.8Z"/>
        <path class="cls-2" d="M21.89,52.81h-3.26l-2,5.28-2.25-3.93c-.43-.74-1.48-1.35-2.34-1.35h-1.63l4.94,8.68-1.29,3.39h1.69c.86,0,1.81-.66,2.11-1.46l4.02-10.61Z"/>
        <path class="cls-2" d="M30.51,59.62h-4.1l1.72-4.53c.18-.48.48-.48.66,0l1.72,4.53ZM31.28,61.65h0l1.22,3.23h3.07l-4.02-10.61c-.3-.8-1.26-1.46-2.12-1.46h-3.51l-4.57,12.07h1.53c.84,0,1.78-.66,2.09-1.46l.67-1.77h5.63"/>
        <path class="cls-2" d="M55.21,55.09c.18-.48.48-.48.66,0l1.72,4.53h-4.1l1.72-4.53ZM52.72,61.65h5.63l.67,1.77c.3.8,1.24,1.46,2.09,1.46h1.53l-4.57-12.07h-3.51c-.86,0-1.81.66-2.11,1.46l-4.02,10.61h3.07l1.22-3.23h0"/>
      </g>
      <path class="cls-1" d="M19.37,18.73c0-7.19,4.75-11.73,4.75-11.73.11-.1.5-.08.81-.08h5.31c-2.68,2.34-4.35,8.23-4.35,11.81s1.67,9.46,4.35,11.82h-5.31c-.31,0-.7.02-.81-.08,0,0-4.75-4.55-4.75-11.74ZM46.94,30.47c.13.1.5.08.83.08h5.31c-2.69-2.35-4.37-8.25-4.37-11.82s1.67-9.48,4.37-11.81h-5.31c-.32,0-.7-.02-.83.08,0,0-4.74,4.55-4.74,11.73s4.74,11.74,4.74,11.74ZM35.53,30.47c.13.1.5.08.83.08h5.29c-2.68-2.35-4.36-8.25-4.36-11.82s1.69-9.48,4.36-11.81h-5.29c-.32,0-.7-.02-.83.08,0,0-4.74,4.63-4.74,11.73s4.74,11.74,4.74,11.74ZM61.49,39.88c-.81-1.65-2.23-4.47-2.48-5.42,0,0-.85-2.16,1.44-2.52.97-.14,1.61-.84,1.66-1.76v-1.06c-.02-.15-.14-.28-.29-.29h-3.77c-.06,0-2.65.29-2.68,3.44-.08,5.38.04,6.1-1.41,6.34-.13-.01-.23-.12-.23-.25h0c0-.05,0-.11,0-.16,0-2.86-2.32-5.18-5.18-5.18-1.45,0-2.77.6-3.71,1.57h0c-.04.06-.13.14-.24.14s-.2-.08-.24-.14h0c-.94-.97-2.25-1.57-3.71-1.57s-2.77.6-3.71,1.57h0c-.04.06-.13.14-.24.14s-.2-.08-.24-.14h0c-.94-.97-2.25-1.57-3.71-1.57s-2.77.6-3.71,1.57h0c-.04.06-.13.14-.24.14s-.2-.08-.24-.14h0c-.94-.97-2.25-1.57-3.71-1.57-2.86,0-5.18,2.32-5.18,5.18,0,.05,0,.11,0,.16,0,0,0,0,0,0,0,.14-.13.26-.27.26-1.46-.24-1.35-.94-1.42-6.34-.03-3.15-2.62-3.44-2.68-3.44h-3.77c-.15.01-.27.13-.28.29v1.06c.04.92.68,1.62,1.65,1.76,2.29.36,1.44,2.52,1.44,2.52-.26.95-1.67,3.77-2.48,5.42-.52,1.07-1.57,3.72.08,6.26.96,1.48,2.09,2.86,6.12,2.79h37.23c4.04.06,5.16-1.32,6.12-2.79h0c1.65-2.55.6-5.19.08-6.26ZM24.87,35.08c-1.72,0-3.11,1.39-3.11,3.11s1.39,3.11,3.11,3.11,3.11-1.39,3.11-3.11-1.39-3.11-3.11-3.11ZM48.54,35.08c-1.72,0-3.11,1.39-3.11,3.11s1.39,3.11,3.11,3.11,3.11-1.39,3.11-3.11-1.39-3.11-3.11-3.11ZM32.76,35.08c-1.72,0-3.11,1.39-3.11,3.11s1.39,3.11,3.11,3.11,3.11-1.39,3.11-3.11-1.39-3.11-3.11-3.11ZM40.65,35.08c-1.72,0-3.11,1.39-3.11,3.11s1.39,3.11,3.11,3.11,3.11-1.39,3.11-3.11-1.39-3.11-3.11-3.11Z"/>
    </g>
  </g>
</svg>