<?xml version="1.0" encoding="UTF-8"?>
<svg id="Capa_2" data-name="Capa 2" xmlns="http://www.w3.org/2000/svg" viewBox="0 0 91.14 147.82">
  <defs>
    <style>
      .cls-1 {
        fill: #335260;
      }

      .cls-2 {
        opacity: .43;
      }
    </style>
  </defs>
  <g id="Capa_1-2" data-name="Capa 1">
    <g class="cls-2">
      <path class="cls-1" d="M48.68.17c-3.48-.78-7.39,1.29-9.96,3.48-3.15,2.68-5.27,6.3-6.53,10.21-1.44,4.46-1.93,9.16-2.45,13.81-.56,5.09-1.12,10.18-1.68,15.26-.63,5.69-1.28,11.38-1.84,17.08-.22,2.24,3.24,2.58,3.48.34,1.02-9.31,1.88-18.65,2.81-27.97.81-8.15.67-17.9,6.05-24.62,1.25-1.57,2.81-2.95,4.59-3.89,1.8-.96,3.65-1.22,5.62-1.6,1.25-.24,1.03-1.84-.08-2.1h0Z"/>
      <path class="cls-1" d="M41.97,5.63c4.47-1.26,9.91-2.31,14.36-.5,4.08,1.67,5.65,5.79,6.17,9.86.62,4.83.16,9.81-.16,14.65-.37,5.74-.94,11.46-1.72,17.16-.42,3.11-.89,6.21-1.43,9.31-.27,1.54-.54,3.08-.85,4.62-.31,1.64-.89,3.34-.64,5.02.17,1.17,1.9,1.64,2.55.6.82-1.3.98-2.78,1.27-4.26.3-1.54.58-3.08.86-4.63.54-3.09,1.02-6.19,1.44-9.3.83-6.22,1.42-12.47,1.77-18.73.47-8.46,2.21-21.69-7.23-26.15-5.42-2.56-11.41-.2-16.58,1.76-.32.12-.15.69.18.59h0Z"/>
      <path class="cls-1" d="M25.53,63.93c-.93,2.82,1.33,6.52,2.99,8.69,2.01,2.63,4.73,4.72,7.83,5.9,6.45,2.47,14.32.81,19.25-4.02,1.27-1.25,2.33-2.7,2.7-4.48.38-1.78-.2-3.84-2.15-4.25-.82-.17-1.54.75-1.39,1.5.13.68.52,1.19.46,1.9-.07.75-.48,1.48-.92,2.08-.96,1.3-2.37,2.39-3.76,3.2-2.99,1.74-6.5,2.51-9.95,2.1-3.33-.41-6.46-2.03-8.84-4.39-1.17-1.15-2.16-2.48-2.94-3.93-.78-1.45-1.18-3.2-2.2-4.48-.29-.36-.92-.27-1.06.17h0Z"/>
      <path class="cls-1" d="M31.68,44.6c4.84.34,9.7.34,14.55.45,2.42.05,4.85.11,7.28.16,2.3.05,4.82.37,7.1.02,1.44-.23,1.21-2.2-.09-2.45-2.31-.43-4.92-.18-7.28-.2-2.43-.02-4.86-.06-7.28-.09-4.79-.05-9.57-.19-14.35-.03-1.22.05-1.11,2.05.08,2.14h0Z"/>
      <path class="cls-1" d="M27.32,63.71c2.13.59,1.92-2.7.6-3.5-1.95-1.2-4.66-.06-5.74,1.79-2.71,4.66,5.58,9.05,7.49,4.34.21-.52-.28-1.15-.84-1.03-1.29.28-3.8.66-4.4-.99-.28-.78.3-1.59.94-1.99.38-.25.85-.4,1.29-.31.19.03.45.13.59.25,0,0,.52.32.17.34-.56.02-.63.95-.11,1.1h0Z"/>
      <path class="cls-1" d="M56.98,63.47c1.85-.85,4.37-2.11,6.43-1.19.97.43,2.48,2.09,1.57,3.17-.76.91-2.53.93-3.59,1.32-1.29.46-2.48,1.34-2.52,2.82-.03,1.23,1.34,1.67,2.13.8,1.14-1.25,2.98-1.19,4.44-1.86,1.88-.86,2.97-2.69,2.49-4.75-.46-1.99-2.11-3.58-4.12-3.92-2.66-.45-5.22,1.04-7.39,2.37-.73.44-.25,1.6.56,1.23h0Z"/>
      <path class="cls-1" d="M9.85,51.52c-.64,2.26-.29,4.7-.22,7.03.07,2.38.24,4.78.39,7.15.28,4.27.87,8.51,2.7,12.42,3.17,6.79,9.19,11.97,15.97,14.96,8.34,3.68,17.85,3.97,26.74,2.62,4.28-.65,8.75-1.51,12.37-4.04,3.42-2.38,5.69-6.02,7.51-9.68,4.67-9.34,7.11-19.8,7.27-30.24.03-2.11-3.26-2.45-3.28-.32-.08,8.67-1.77,17.25-5.06,25.28-1.49,3.63-3.21,7.35-5.84,10.3-2.75,3.07-6.46,4.36-10.39,5.16-8.41,1.7-17.37,2.02-25.58-.75-6.61-2.23-12.74-6.63-16.29-12.73-2.24-3.85-3.08-8.07-3.47-12.46-.22-2.41-.32-4.84-.54-7.25-.22-2.47-.18-5.21-1.16-7.49-.19-.45-.97-.47-1.12.04h0Z"/>
      <path class="cls-1" d="M7.53,55.25c.74-.48,1.46-.96,2.2-1.44.59-.38.41-1.24-.05-1.62-3.18-2.59-7.34.3-8.45,3.58-.77,2.26-.56,4.71-.49,7.05.09,2.55.18,5.1.37,7.65.69,9.15,3.03,18.65,9.6,25.43,3.26,3.37,7.44,6.1,12.2,6.51,1.29.11,1.88-1.93.54-2.31-3.4-.95-6.57-2.44-9.25-4.76-2.72-2.34-4.87-5.37-6.42-8.59-3.59-7.48-4.08-16.11-4.52-24.26-.12-2.23-.44-4.82.51-6.92.76-1.7,3.06-3.01,4.71-1.72-.07-.48-.15-.96-.22-1.43-.49.71-.98,1.41-1.47,2.12-.35.51.28,1.02.75.7h0Z"/>
      <path class="cls-1" d="M80.66,55.85c1.39-1.59,3.2-2.88,3.83-4.97.13-.43-.32-.73-.68-.49-1.82,1.2-2.53,3.31-3.66,5.1-.21.35.24.67.51.36h0Z"/>
      <path class="cls-1" d="M82.11,51.72c.83-1.77,3.23-1.79,4.73-.95,2.24,1.25,2.27,4.14,2.04,6.37-.26,2.64-.88,5.26-1.48,7.83-.65,2.86-1.35,5.7-2.24,8.49-3.19,10.03-8.71,19.57-17.81,25.3-2.27,1.43-4.74,2.6-7.31,3.38-1.25.37-2.53.65-3.82.84-1.44.22-2.62.02-3.6,1.22-.23.29-.23.81.04,1.08,1.08,1.15,2.22.88,3.68.68,1.42-.19,2.82-.51,4.2-.92,2.7-.81,5.27-1.96,7.67-3.44,4.93-3.02,9.14-7.13,12.36-11.94,3.71-5.52,6.22-11.76,7.95-18.16.87-3.2,1.55-6.45,2.07-9.73.46-2.86.92-5.74.12-8.59-.69-2.44-2.41-4.26-4.98-4.63-2.2-.32-4.36.6-4.89,2.87-.18.76.97.93,1.27.3h0Z"/>
      <path class="cls-1" d="M15.64,100.38c2.69,1.15,5.44,1.98,8.26,2.76,2.77.77,5.43,1.38,8.31,1.59,1.56.11,1.79-2.35.24-2.41-2.71-.12-5.51-.22-8.21-.62-2.8-.41-5.6-1.26-8.28-2.16-.55-.18-.86.61-.32.84h0Z"/>
      <path class="cls-1" d="M31.68,102.12c-3.09-1.26-5.08,2.83-4.65,5.36.28,1.68,1.5,3.09,2.89,4,1.37.89,3.62,1.99,5.23,1.31.6-.25.76-1.07.36-1.55-.71-.85-1.92-1.04-2.9-1.48-1.06-.47-2.18-1.05-2.78-2.08-.92-1.55.04-3.43,1.68-3.87.81-.22,1.02-1.34.16-1.69h0Z"/>
      <path class="cls-1" d="M49.87,105.83c1.55.57,2.4,2.2,1.78,3.77.21-.22.41-.44.62-.66-2.3.86-4.49,1.96-6.37,3.56-.47.41-.12,1.19.51,1.1,1.73-.25,3.21-.79,4.8-1.5,1.4-.62,2.74-.93,2.88-2.63.19-2.29-1.41-4.59-3.63-5.16-.99-.25-1.59,1.15-.59,1.52h0Z"/>
      <path class="cls-1" d="M36.99,113.77c.46.61,1.1.41,1.46-.18.47-.77.27-1.45-.3-2.06-.36-.4-1-.61-1.51-.35-1.07.57-1.54,1.53-1.77,2.69-.33,1.69-.42,3.45-.62,5.16-.2,1.73-.39,3.46-.59,5.19-.16,1.44-.8,3.56.38,4.73.29.29.63.32.97.09,1.22-.78,1.16-2.5,1.29-3.78.17-1.64.33-3.29.49-4.94.16-1.56.31-3.11.46-4.68.06-.53,0-1.51.32-1.99.13-.19.99-1.06.62-.71-.28.05-.56.1-.85.15,0,0,.02.04.01.06-.03.11.06.08.29-.07-.45-.34-.98.27-.66.7h0Z"/>
      <path class="cls-1" d="M45.65,114.69c-.18.24-.36.47-.54.7-.07-.24-.15-.49-.22-.73-.31,2.45-.5,4.88-1,7.32-.28,1.38-.62,2.75-1,4.11-.35,1.2-.97,2.41-.75,3.67.15.85,1.32,1.41,1.99.74.94-.93,1.11-2.14,1.43-3.38.29-1.12.54-2.24.78-3.37.49-2.42.86-4.89,1.04-7.35.06-.86.07-1.74-.66-2.34-.44-.36-1.13-.61-1.68-.4-1.03.39-1.37,2.05-.16,2.44.82.26,1.62-.95.77-1.42h0Z"/>
      <path class="cls-1" d="M34.63,125.63c.27-1.31-.52-2.85-1.82-3.21-1.92-.52-3.81-.08-5.73.29-2.87.56-5.73,1.13-8.61,1.69-2.31.45-4.64.9-6.85,1.74-3.91,1.49-7.6,4.85-7.66,9.32-.07,4.42,3.53,7.12,7.35,8.43,4.84,1.68,10.15,2.47,15.23,3.1,5.5.68,11.06.93,16.6.75,8.63-.28,21.84-.47,25.45-10.23,1.8-4.85-.51-9.61-4.84-12.11-2.25-1.29-4.67-1.99-7.21-2.44-1.43-.26-2.88-.43-4.32-.67-1.6-.25-3.12-.66-4.75-.7-1.12-.03-1.83,1.42-.8,2.13,1.84,1.28,4.03,1.52,6.2,1.86,2.08.33,4.22.58,6.23,1.2,3.14.98,6.62,3.05,7.02,6.64.43,3.88-2.74,7.17-6,8.68-3.79,1.76-8.2,2.09-12.32,2.43-9.25.75-18.59.25-27.71-1.46-3.62-.67-7.95-1.21-11.03-3.41-3.13-2.24-2.69-6.08-.18-8.65,3.21-3.26,8.57-3.76,12.8-4.67,2.61-.56,5.21-1.19,7.83-1.69.81-.15,1.66-.22,2.47-.06.85.18,1.92-.01,2.12,1.03.06.3.46.26.52-.02h0Z"/>
      <path class="cls-1" d="M30.94,129.06c3.33,5.56,11.29,6,15.61,1.37,1.21-1.3-1.05-2.93-2.25-1.63-3.05,3.33-9.14,2.69-11.87-.68-.62-.75-2.02.05-1.49.94h0Z"/>
      <path class="cls-1" d="M10.19,58.12c2.57.03,5.14-.06,7.71-.13,2.43-.07,5.09.15,7.47-.35,1.05-.23,1.01-1.75-.07-1.89-2.41-.32-5.05.12-7.48.24-2.56.14-5.13.26-7.69.49-.92.08-.88,1.64.06,1.65h0Z"/>
      <path class="cls-1" d="M9.67,61.33c2.96.93,6.01,1.55,9.11,1.77,1.49.11,3,.15,4.49.04,1.43-.12,3.03-.13,4.2-1.05.48-.38.35-1.19-.22-1.39-1.28-.45-2.59-.09-3.91,0-1.53.11-3.05.23-4.59.23-2.94-.01-5.87-.36-8.74-1-.8-.18-1.11,1.16-.33,1.41h0Z"/>
      <path class="cls-1" d="M62.79,63.18c5.24.73,11.03,1.02,16.21-.27,1.15-.29.87-1.93-.32-1.82-2.58.26-5.12.73-7.72.87-2.68.13-5.36.15-8.05-.05-.82-.06-.94,1.16-.12,1.27h0Z"/>
      <path class="cls-1" d="M63.52,66.73c2.81.15,5.61.31,8.42.47,1.37.08,2.73.08,4.09.11,1.28.02,2.66.24,3.87-.23.85-.32.7-1.54-.06-1.85-1.16-.48-2.59-.27-3.83-.29-1.37,0-2.73-.02-4.11.02-2.74.09-5.49.17-8.23.26-.95.03-1.16,1.46-.15,1.52h0Z"/>
      <path class="cls-1" d="M44.55,4.48c.38.35-5.57,7.34-6.13,8.06-.98,1.25-1.95,2.5-2.93,3.74-.99,1.27-2.11,2.57-2.76,4.06-.25.57.5,1.05.95.69,2.12-1.68,3.66-4.32,5.28-6.46,1.76-2.32,3.48-4.65,5.2-6.99.51-.7,2.67-3.22.82-3.86-.91-.31-1.95.95-1.03,1.58.55.37,1.06-.39.59-.81h0Z"/>
      <path class="cls-1" d="M52.03,4.68c-3.67,3.89-7.34,7.78-10.94,11.74-1.78,1.96-3.56,3.91-5.34,5.87-1.77,1.95-3.83,3.89-5.04,6.26-.29.57.48.92.9.65,2.09-1.37,3.72-3.52,5.36-5.38,1.81-2.04,3.63-4.08,5.44-6.12,3.56-4.01,7.04-8.08,10.52-12.16.45-.53-.41-1.36-.91-.85h0Z"/>
      <path class="cls-1" d="M56.38,8.69c-4.16,4.11-8.21,8.33-12.3,12.52-2.01,2.07-4.04,4.12-6.08,6.17-1.98,1.98-4.25,3.97-5.81,6.31-.32.48.26.95.7.65,2.38-1.54,4.38-3.83,6.36-5.85,2.09-2.13,4.17-4.26,6.22-6.4,3.98-4.15,7.89-8.37,11.59-12.76.34-.4-.29-1.01-.68-.64h0Z"/>
      <path class="cls-1" d="M60.2,12.2c-9.06,8.3-18.06,16.82-26.28,25.96-.46.51.37,1.27.88.82,9.16-8.17,17.7-17.16,26.02-26.19.33-.36-.26-.92-.63-.59h0Z"/>
      <path class="cls-1" d="M62.96,15.54c-4.9,4.52-9.81,9.02-14.65,13.61-2.35,2.24-4.7,4.47-7.06,6.7-1.21,1.15-2.44,2.27-3.62,3.44-.98.97-2.46,2.23-2.88,3.56-.12.38.18.89.63.77,1.3-.36,2.45-1.57,3.44-2.46,1.24-1.11,2.4-2.32,3.6-3.48,2.4-2.32,4.79-4.65,7.19-6.97,4.79-4.65,9.51-9.39,14.23-14.1.62-.62-.22-1.68-.88-1.07h0Z"/>
      <path class="cls-1" d="M61.92,23.72c-4.06,3.4-8.09,6.81-12.05,10.33-1.91,1.7-3.82,3.41-5.71,5.12-1.02.92-2.02,1.83-3.03,2.76-.88.81-1.78,1.57-2.3,2.67-.33.7.5,1.26,1.1,1.04,1.2-.46,2.09-1.44,3.02-2.29.88-.8,1.75-1.61,2.64-2.42,1.94-1.79,3.91-3.57,5.87-5.33,3.87-3.48,7.71-6.99,11.59-10.46.86-.77-.25-2.14-1.14-1.39h0Z"/>
      <path class="cls-1" d="M62.16,29.92c-2.71,2.48-5.41,4.95-8.11,7.43-1.28,1.18-2.55,2.37-3.82,3.59-1.17,1.13-2.91,2.3-3.55,3.83-.36.82.56,1.52,1.31,1.23,1.46-.56,2.62-2.18,3.73-3.26,1.32-1.28,2.62-2.57,3.91-3.89,2.52-2.56,5.04-5.12,7.56-7.68.72-.73-.25-1.98-1.03-1.26h0Z"/>
      <path class="cls-1" d="M37.36,8.21c4.51.04,9,.09,13.51-.02,2.25-.05,4.51-.11,6.77-.16,2.09-.05,4.38.05,6.41-.51.54-.15.51-.85-.04-.96-2.07-.4-4.33-.13-6.44-.02-2.25.12-4.5.24-6.75.36-4.51.24-8.98.63-13.47,1.01-.18.01-.17.31,0,.31h0Z"/>
      <path class="cls-1" d="M34.84,12.47c4.31.15,8.63.39,12.93.39,2.07,0,4.15,0,6.23,0,2.06,0,4.42.29,6.41-.28.49-.14.74-.96.11-1.13-2.01-.54-4.3-.25-6.36-.22-2.16.03-4.33.06-6.5.09-4.28.06-8.57.36-12.85.57-.33.02-.31.57.02.58h0Z"/>
      <path class="cls-1" d="M33.35,17.01c4.85.3,9.67.49,14.52.62,2.43.06,4.85.16,7.27.18,2.22.02,4.8.32,6.97-.24.56-.14.78-1.04.12-1.23-2.16-.63-4.66-.44-6.89-.49-2.43-.05-4.85-.03-7.29-.05-4.87-.02-9.73.02-14.6.16-.65.02-.79.99-.1,1.04h0Z"/>
      <path class="cls-1" d="M29.75,22.76c5.56-.53,11.17-.72,16.75-.69,2.71.02,5.42.12,8.12.3,2.63.18,5.4.75,8.02.22.51-.1.54-.76.09-.97-2.41-1.14-5.29-1.12-7.91-1.28-2.88-.18-5.75-.26-8.63-.25-5.59.02-11.14.54-16.66,1.39-.83.13-.6,1.34.22,1.26h0Z"/>
      <path class="cls-1" d="M30.41,27.4c5.04-.25,10.08-.22,15.13-.13,2.38.04,4.77.15,7.15.28,2.39.14,4.97.39,7.33.05.52-.07.59-.85.1-1.03-2.24-.8-4.85-.98-7.23-1.12-2.55-.15-5.11-.21-7.67-.23-5.03-.03-10.04.36-15.03.93-.81.09-.56,1.26.22,1.23h0Z"/>
      <path class="cls-1" d="M33.27,32.04c4.12.53,8.26.95,12.38,1.41,4.15.46,8.27.99,12.44.86.72-.02.81-.95.11-1.11-4.07-.92-8.22-1.2-12.38-1.54-4.14-.35-8.28-.74-12.42-1.01-.9-.05-1.02,1.27-.13,1.38h0Z"/>
      <path class="cls-1" d="M30.36,36.75c4.68.16,9.35.08,14.04,0,4.6-.08,9.16-.18,13.74-.79.58-.07.54-.98-.05-1.03-4.6-.35-9.16-.19-13.76-.01-4.68.19-9.35.38-14.02.79-.58.06-.54,1.02.05,1.04h0Z"/>
      <path class="cls-1" d="M32.04,41.24c5.06-.16,10.1-.32,15.15-.59,2.54-.13,5.07-.25,7.6-.39,1.22-.07,2.44-.16,3.65-.24,1.28-.08,2.65-.04,3.85-.53.66-.27.69-1.43-.06-1.63-1.18-.31-2.43-.14-3.64-.07-1.22.08-2.45.14-3.66.22-2.52.17-5.05.38-7.57.56-5.13.39-10.25.86-15.37,1.36-.73.06-.69,1.33.05,1.3h0Z"/>
      <path class="cls-1" d="M34.76,45.54c4.28-.15,8.57-.22,12.84-.5,4.33-.28,8.78-.29,13.01-1.38.77-.2.8-1.34-.06-1.43-4.26-.48-8.58.11-12.83.43-4.35.33-8.69.85-13.02,1.3-.88.09-.85,1.62.06,1.58h0Z"/>
      <path class="cls-1" d="M43.22,48.8c3.44-.46,6.93-.43,10.39-.39.83,0,.94-1.13.12-1.28-3.61-.68-7.17-.46-10.79.14-.99.16-.73,1.67.27,1.54h0Z"/>
      <path class="cls-1" d="M2.16,51.18c.05-.26.65-.91.8-1.16.18-.29.4-.59.63-.83.5-.55,1.14-.99,1.81-1.3,1.44-.67,3.04-.74,4.52-.17-.21-.7-.42-1.41-.63-2.11-1,1.67-2.06,3.21-2.47,5.12-.18.85.99,1.34,1.58.84,1.4-1.18,2.2-2.76,3.14-4.32.46-.76.27-1.77-.63-2.12-3.48-1.34-7.89-.19-10.04,2.97-.93,1.37-1.55,3.88.35,4.79,1.33.63,2.85-.3,2.75-1.77-.09-1.12-1.63-.85-1.83.07h0Z"/>
      <path class="cls-1" d="M84.61,50.18c-1.14-.93-1.07-3.9.62-4.23.92-.18,1.64.75,1.89,1.51.37,1.15-.43,1.71-.54,2.76-.08.77.59,1.22,1.27,1.18,2.27-.13,2.3-3.56,1.72-5.08-.74-1.94-2.66-3.42-4.8-3.05-3.86.66-4.86,7.03-.89,8.23.83.25,1.41-.77.72-1.33h0Z"/>
      <path class="cls-1" d="M28.14,60.27c4.58-2.96,9.16-5.91,13.7-8.93,1.27-.85,2.51-1.76,3.76-2.65.19-.14-.02-.48-.22-.36-1.15.7-2.31,1.37-3.43,2.1-1.16.76-2.32,1.52-3.48,2.27-2.28,1.49-4.53,3.03-6.79,4.54-1.29.87-2.59,1.73-3.88,2.6-.3.19.05.61.34.42h0Z"/>
      <path class="cls-1" d="M28.79,65.78c2.1-1.56,4.2-3.13,6.3-4.69,2.1-1.57,4.25-3.08,6.2-4.81.33-.29-.06-.74-.42-.52-2.22,1.4-4.27,3.05-6.36,4.62-2.09,1.58-4.17,3.16-6.26,4.74-.44.33.1.99.54.66h0Z"/>
      <path class="cls-1" d="M29.31,106.68c1.24-.66,2.48-1.29,3.72-1.94,1.24-.66,2.45-1.37,3.67-2.06,1.22-.69,2.45-1.38,3.67-2.06,1.21-.68,2.49-1.3,3.59-2.16.36-.27,0-.79-.4-.64-1.29.5-2.5,1.3-3.71,1.98-1.2.68-2.4,1.37-3.6,2.05-1.2.69-2.41,1.34-3.59,2.06-1.2.72-2.4,1.48-3.61,2.21-.33.2-.1.76.26.57h0Z"/>
      <path class="cls-1" d="M31.95,109.79c4.5-2.82,9-5.63,13.39-8.61.6-.41,1.19-.82,1.79-1.23.63-.43,1.31-.83,1.87-1.34.27-.25,0-.7-.34-.55-.6.27-1.14.65-1.7,1-.56.35-1.11.7-1.67,1.05-1.13.71-2.25,1.44-3.37,2.17-2.23,1.45-4.44,2.91-6.64,4.4-1.23.84-2.46,1.68-3.7,2.52-.33.22.03.81.37.6h0Z"/>
      <path class="cls-1" d="M33.89,113.33c4.38-2.67,8.77-5.31,13.1-8.05,1.23-.77,2.44-1.55,3.64-2.36.28-.19-.03-.68-.32-.51-4.42,2.59-8.7,5.42-12.99,8.22-1.22.78-2.42,1.58-3.64,2.36-.2.12,0,.46.21.34h0Z"/>
      <path class="cls-1" d="M12.7,134.76c.51-.19,1.02-.35,1.51-.59.47-.23.93-.45,1.4-.68.95-.47,1.88-.95,2.82-1.44,1.85-.99,3.65-2.07,5.42-3.18,1.01-.65,2-1.33,2.98-1.99.19-.13-.02-.46-.21-.34-3.54,2.2-7.21,4.22-10.92,6.13-.53.28-1.07.54-1.6.81-.26.13-.53.23-.76.38-.27.17-.53.35-.81.51-.24.14-.09.5.18.4h0Z"/>
      <path class="cls-1" d="M10.72,140.34c2.76-1.35,5.41-2.91,8.08-4.42,2.65-1.51,5.31-3.02,7.93-4.58,1.48-.88,3.02-1.71,4.39-2.75.29-.22,0-.66-.32-.52-1.41.6-2.74,1.41-4.07,2.15-1.34.74-2.67,1.51-4,2.29-2.65,1.53-5.28,3.08-7.91,4.63-1.48.88-2.95,1.78-4.38,2.74-.26.18,0,.6.28.46h0Z"/>
      <path class="cls-1" d="M15.05,143.19c4.82-3.37,9.78-6.53,14.76-9.65,1.41-.88,2.8-1.76,4.18-2.67.27-.18-.01-.63-.31-.49-5.23,2.68-10.18,5.95-14.99,9.31-1.39.96-2.76,1.94-4.11,2.93-.39.28.08.84.47.57h0Z"/>
      <path class="cls-1" d="M23.76,142.29c2.48-1.46,4.95-2.91,7.42-4.37,2.48-1.45,4.91-2.97,7.37-4.47.67-.41,1.34-.82,2.01-1.25.69-.44,1.42-.85,2.05-1.4.32-.28,0-.77-.39-.62-.67.27-1.28.65-1.91,1.02-.63.36-1.25.73-1.87,1.1-1.22.74-2.44,1.48-3.65,2.23-2.45,1.49-4.89,3-7.32,4.54-1.37.86-2.75,1.72-4.12,2.58-.36.23.03.85.39.64h0Z"/>
      <path class="cls-1" d="M32,142.99c2.69-.84,5.31-1.89,7.85-3.13,2.52-1.23,4.99-2.66,7.24-4.33,1.26-.94,2.57-1.9,3.66-3.05.22-.23-.05-.57-.32-.39-1.17.77-2.26,1.65-3.42,2.44-1.16.79-2.32,1.57-3.52,2.3-2.36,1.43-4.8,2.73-7.33,3.85-1.46.63-2.93,1.21-4.44,1.72-.4.13-.12.72.27.59h0Z"/>
      <path class="cls-1" d="M49.36,137.85c.37-.34.73-.67,1.11-1,.08-.08.11-.22.03-.32-.09-.1-.22-.11-.32-.03-.4.3-.8.6-1.2.89-.12.1-.14.3-.04.42.1.12.29.15.42.04h0Z"/>
    </g>
  </g>
</svg>