<?xml version="1.0" encoding="UTF-8"?>
<svg id="Capa_2" data-name="Capa 2" xmlns="http://www.w3.org/2000/svg" viewBox="0 0 233.84 190.28">
  <defs>
    <style>
      .cls-1 {
        fill: #335260;
      }

      .cls-2 {
        opacity: .43;
      }
    </style>
  </defs>
  <g id="Capa_1-2" data-name="Capa 1">
    <g class="cls-2">
      <path class="cls-1" d="M16.12,6.67c27.04-.36,54.08-.94,81.12-1.46,27.04-.53,54.08-1.05,81.12-1.58,7.64-.15,15.27-.29,22.92-.44,3.71-.08,7.43-.15,11.14-.22,3.8-.08,7.69.13,11.44-.61,1.25-.25.85-1.88-.22-2.04-3.36-.54-6.81-.24-10.21-.17-3.4.07-6.81.13-10.22.2-6.71.13-13.42.27-20.13.4-13.52.27-27.04.53-40.56.81-26.94.54-53.88,1.08-80.81,1.6-15.18.31-30.35.63-45.52,1.03-1.59.04-1.68,2.5-.08,2.48h0Z"/>
      <path class="cls-1" d="M15.9,4.3c-3.95.82-7.16,3.07-9.38,6.43-2.28,3.45-3.5,7.53-4.24,11.56-.89,4.88-1.06,9.81-1.27,14.75-.26,6.38-.47,12.76-.63,19.15C.06,69.06-.06,81.94.03,94.81c.04,6.39.13,12.78.28,19.16.13,5.73-.14,11.74,1.01,17.39.97,4.74,3.55,8.96,7.85,11.35,4.11,2.29,8.92,2.92,13.55,3.08,5.84.2,11.72-.08,17.56-.18,6.48-.11,12.97-.24,19.45-.38,25.63-.55,51.26-1.35,76.87-2.4,25.72-1.03,51.43-2.31,77.13-3.8,3.19-.19,6.37-.39,9.56-.58,2.52-.15,2.66-4.11.12-3.94-24.77,1.53-49.55,2.85-74.34,3.95-24.79,1.1-49.59,1.97-74.4,2.66-12.46.34-24.92.63-37.37.86-5.49.1-11.04.44-16.52.07-4.2-.3-8.88-1.13-12.08-4.08-3.73-3.43-4.31-8.66-4.51-13.45-.26-6.05-.35-12.11-.45-18.17-.21-12.46-.21-24.93-.03-37.39.18-12.46.53-24.92,1.13-37.37.37-7.71,1.55-16.07,7-21.94,1.27-1.37,2.85-2.39,4.62-3.02,1.43-.5.98-2.65-.57-2.33h0Z"/>
      <path class="cls-1" d="M221.62,3.4c4.07-.91,7.4,2.86,8.33,6.45,1.17,4.52.41,9.58.28,14.19-.29,10.1-.46,20.22-.68,30.32-.46,20.17-.91,40.33-1.36,60.49-.11,5.05.36,10.81-1.85,15.5-1.72,3.66-6,6.32-10.08,5.49-.71-.15-1.57.78-.86,1.37,3.25,2.68,7.5,1.77,10.59-.69,3.66-2.93,4.97-7.63,5.41-12.11.52-5.35.37-10.82.49-16.19.13-5.74.25-11.48.37-17.22.49-22.79,1.2-45.59,1.45-68.39.06-5.34.83-11.63-1.9-16.47-2.1-3.71-6.65-6.12-10.72-4.15-.8.39-.29,1.62.55,1.43h0Z"/>
      <path class="cls-1" d="M82.65,143.75c-1.26,2.21-1.21,5.13-1.1,7.62.08,2.07-.05,5.81,1.95,6.96.69.39,1.55.22,1.99-.46.65-1,.46-1.78.26-2.9-.2-1.26-.37-2.5-.42-3.77-.09-2.33.48-4.68.16-6.99-.19-1.34-2.22-1.57-2.85-.46h0Z"/>
      <path class="cls-1" d="M153.7,140.64c.1-.03.2-.06.29-.09.29.13.57.25.85.38.07.21.14.41.21.61-.33.31-.65.61-.97.92.15-.03,1.14-.46,1.03-.7-.54.1-1.07.2-1.61.29.01.18,0,.36-.01.53-.11.32-.07.75-.11,1.09-.19,1.7-.37,3.4-.55,5.1-.17,1.6-.35,3.19-.52,4.79-.18,1.69-.4,3.26.46,4.79.31.57,1.27.85,1.74.28,1.53-1.82,1.43-4.19,1.64-6.46.22-2.49.44-4.99.66-7.49.15-1.7.58-3.85-.9-5.12-1.26-1.06-3.08-.72-3.59.91-.22.66.08,1.4.65,1.77.02.01.04.03.07.05-.2-.29-.4-.56-.6-.84.38,1.2,1.48,2.1,2.61,1.05,1-.94-.19-2.38-1.35-1.86h0Z"/>
      <path class="cls-1" d="M85.18,160.39c-.48-.97-.94-1.96-1.48-2.91-.37.6-.74,1.21-1.12,1.81,5.92.55,11.94.37,17.89.37,5.97,0,11.93-.03,17.9-.15,5.97-.12,11.93-.33,17.9-.57,2.88-.11,5.75-.23,8.63-.38,1.44-.06,2.88-.13,4.32-.21,1.52-.07,3.02-.03,4.44-.61,1.18-.49.85-2.33-.26-2.65-1.43-.42-2.92-.17-4.38-.09-1.54.07-3.08.15-4.63.22-2.88.13-5.75.25-8.63.37-5.86.22-11.73.38-17.6.54-5.86.16-11.72.3-17.59.38-5.96.08-11.97-.11-17.91.33-1.01.07-1.72,1.24-.94,2.07.76.79,1.57,1.51,2.37,2.26.55.52,1.42-.08,1.08-.78h0Z"/>
      <path class="cls-1" d="M80.66,159.69c-6.51,1.73-12.51,5.94-17.63,10.23-2.42,2.04-5.27,4.41-7.01,7.07-.66.99-1.03,2.35-.76,3.53.28,1.2,1.48,2.29,2.76,1.81.98-.37,1.76-1.73.78-2.6-.16-.14-.16.2-.04-.19.16-.52.41-.79.77-1.2.8-.91,1.65-1.79,2.5-2.64,1.9-1.9,3.89-3.71,5.98-5.4,4.19-3.35,8.88-5.82,13.37-8.68.95-.61.46-2.24-.73-1.93h0Z"/>
      <path class="cls-1" d="M151.24,158.46c5.59,3.03,11.17,6.15,16.15,10.12,5.01,4,9.47,8.62,13.25,13.8,1.35,1.84,3.92-.61,2.59-2.43-7.64-10.37-18.6-19.75-31.1-23.44-1.14-.33-2,1.35-.9,1.95h0Z"/>
      <path class="cls-1" d="M55.86,180.99c-2.9,1.79-3.9,5.3-2.64,8.42.17.4.64.6,1.03.64,4.69.46,9.5.09,14.23,0,4.53-.09,9.08-.16,13.62-.27,9.29-.24,18.58-.49,27.87-.73,18.37-.48,36.74-.89,55.11-1.46,2.69-.08,5.37-.16,8.05-.25,1.95-.05,4.02,0,5.84-.78,1.7-.72,2.92-2.1,3.21-3.94.26-1.69-.4-3.12-2.12-3.6-.86-.24-1.68.68-1.23,1.48.65,1.14.22,2.53-.93,3.1-1.71.83-4.05.52-5.89.56-4.24.09-8.46.16-12.69.27-8.57.22-17.13.44-25.69.67-16.93.44-33.85.89-50.79,1.32-4.74.13-9.49.3-14.24.45-4.85.16-9.78.06-14.58.78.44.2.89.4,1.35.59-.99-1.94-.4-4.38,1.39-5.66.93-.67.15-2.25-.87-1.61h0Z"/>
      <path class="cls-1" d="M29.29,23.77c5.76.17,11.55-.04,17.32-.09,5.77-.05,11.55-.08,17.32-.18,11.56-.18,23.11-.36,34.66-.54,23.11-.37,46.21-.76,69.32-1.22,12.99-.26,25.99-.52,38.99-.78,1.2-.03,1.26-1.88.06-1.87-23.1.27-46.2.49-69.3.82-23.1.31-46.2.72-69.32,1.1-6.39.1-12.79.24-19.18.39-6.6.14-13.23.11-19.8.51-1.19.08-1.29,1.83-.06,1.87h0Z"/>
      <path class="cls-1" d="M24.61,126.43c2.8.56,5.63.27,8.48.19,2.98-.08,5.96-.17,8.94-.25,5.86-.15,11.72-.28,17.58-.47,11.84-.39,23.66-.75,35.49-1.08,23.66-.66,47.33-1.24,70.99-1.7,13.39-.26,26.76-.47,40.14-.66,1.9-.02,2.01-3,.09-2.97-23.68.35-47.34.82-71.01,1.4-23.66.59-47.33,1.31-70.99,2.15-6.69.24-13.38.54-20.06.85-3.3.16-6.58.32-9.88.47-3.24.15-6.62,0-9.74.89-.53.15-.67,1.05-.04,1.18h0Z"/>
      <path class="cls-1" d="M206.76,20.59c.65,6.8,1.66,13.56,2.34,20.37.67,6.71,1.14,13.45,1.43,20.19.6,13.59.37,27.19-.52,40.77-.24,3.71-.53,7.43-.9,11.14-.25,2.45-.91,4.84-3.32,5.91-.82.37-.55,1.52.18,1.8,5.6,2.1,6.14-7.81,6.41-10.93.63-7.22,1.03-14.47,1.21-21.72.34-14.5-.15-29.03-1.48-43.47-.75-8.09-1.57-16.33-3.3-24.28-.25-1.11-2.17-.98-2.05.22h0Z"/>
      <path class="cls-1" d="M30.42,24.26c-2.72-1.07-5.59,1.12-6.87,3.43-1.67,3.03-1.61,6.81-1.65,10.17-.1,8.44-.02,16.91.04,25.36.12,16.71.24,33.41.36,50.12.01,2.27.03,4.54.04,6.8.02,1.95-.1,4.08.77,5.89,1.33,2.75,5.48,4.09,7.3,1.03.84-1.4-1.08-3.13-2.28-1.87-.81.85-1.83-.25-2.09-1.03-.5-1.5-.28-3.29-.3-4.84-.02-3.61-.05-7.22-.07-10.83-.06-7.12-.11-14.23-.15-21.34-.11-14.34-.22-28.67-.41-43.01-.05-3.73-.37-7.52-.21-11.25.15-3.65,1.79-6.42,5.47-7.26.72-.17.66-1.13.04-1.38h0Z"/>
      <path class="cls-1" d="M40.71,92.12c19.78-8.84,39.23-18.33,58.21-28.8.34-.19.05-.72-.29-.54-19.23,9.93-38.57,19.68-58.13,28.94-.26.13-.05.51.22.39h0Z"/>
      <path class="cls-1" d="M52.22,101.2c28.29-11.44,56.13-23.97,83.81-36.81,7.75-3.59,15.38-7.37,22.98-11.27.57-.29.1-1.1-.46-.85-27.95,12.19-55.51,25.31-83.39,37.69-7.79,3.46-15.57,6.97-23.34,10.48-.51.23-.09.96.41.76h0Z"/>
      <path class="cls-1" d="M22.92,36.13c2.58-2.81,5.19-5.59,7.72-8.44.15-.17-.09-.43-.25-.26-2.62,2.77-5.16,5.61-7.73,8.43-.16.17.09.45.25.27h0Z"/>
      <path class="cls-1" d="M22.66,40.94c2.55-3.94,6.12-7.2,10.21-9.48.23-.13.04-.49-.2-.36-4.25,2.22-7.8,5.57-10.36,9.62-.14.22.2.44.34.22h0Z"/>
      <path class="cls-1" d="M23.88,46.02c2.85-3.84,6.08-7.4,9.62-10.62,1.01-.91,2.06-1.77,3.06-2.68.27-.24-.1-.59-.37-.39-1.95,1.42-3.72,3.11-5.42,4.81-1.71,1.7-3.34,3.49-4.88,5.36-.86,1.05-1.7,2.12-2.51,3.22-.23.3.27.61.49.3h0Z"/>
      <path class="cls-1" d="M26.07,52.31c4.31-4.04,8.62-8.09,12.92-12.13,1.24-1.16,2.45-2.34,3.66-3.53.17-.16-.08-.43-.26-.27-4.39,3.96-8.65,8.04-12.96,12.09-1.24,1.17-2.48,2.32-3.71,3.48-.23.22.1.57.34.36h0Z"/>
      <path class="cls-1" d="M98.2,117.56c-1.06.93-2.11,1.85-3.17,2.78-.2.18.05.52.28.38,2.67-1.54,5.34-3.06,8-4.64,2.64-1.58,5.29-3.16,7.94-4.75,5.28-3.18,10.55-6.39,15.8-9.62,5.23-3.21,10.45-6.46,15.65-9.72,5.23-3.28,10.42-6.61,15.61-9.96,5.16-3.34,10.28-6.74,15.39-10.14.64-.42,1.28-.85,1.92-1.29.19-.13.03-.44-.17-.31-5.18,3.34-10.39,6.63-15.59,9.95-5.2,3.32-10.42,6.6-15.63,9.89-5.19,3.28-10.4,6.54-15.62,9.76-5.25,3.24-10.51,6.47-15.78,9.66-5.25,3.19-10.56,6.28-15.78,9.53-.65.4-1.31.82-1.97,1.21.08.13.18.26.27.38,1.04-.95,2.06-1.91,3.1-2.86.18-.16-.07-.43-.25-.27h0Z"/>
      <path class="cls-1" d="M111.59,114.21c-.49,1.08-.97,2.15-1.46,3.22-.09.19.17.38.33.28,4.91-3.01,9.78-6.07,14.64-9.15,4.87-3.08,9.74-6.16,14.6-9.24s9.72-6.16,14.59-9.24c4.84-3.07,9.69-6.13,14.53-9.19,4.87-3.08,9.71-6.19,14.54-9.33.61-.39,1.21-.79,1.8-1.21.27-.18.05-.63-.25-.46-2.51,1.43-4.94,3.01-7.38,4.55-2.43,1.52-4.85,3.05-7.28,4.58-4.87,3.07-9.72,6.18-14.58,9.26-4.86,3.09-9.72,6.18-14.57,9.27-4.84,3.07-9.68,6.15-14.52,9.22-4.86,3.09-9.72,6.16-14.54,9.33-.6.4-1.21.79-1.81,1.19.11.09.22.18.34.27.44-1.08.89-2.17,1.35-3.25.09-.21-.24-.31-.34-.11h0Z"/>
      <path class="cls-1" d="M116.92,118.48c-.73-.14-.91.83-.61,1.32.24.39.74.46,1.16.39.7-.12,1.31-.59,1.89-.96,2.79-1.75,5.57-3.51,8.35-5.28,5.56-3.57,11.13-7.14,16.69-10.72,5.57-3.57,11.12-7.17,16.68-10.76,5.56-3.59,11.12-7.17,16.68-10.76,5.54-3.57,11.09-7.13,16.55-10.83.69-.47,1.38-.93,2.07-1.4.29-.19.04-.66-.26-.47-5.38,3.33-10.71,6.74-16.02,10.18-5.29,3.43-10.58,6.86-15.87,10.29-5.31,3.45-10.63,6.88-15.94,10.33-5.29,3.43-10.57,6.88-15.86,10.33-2.65,1.73-5.31,3.43-7.95,5.19-1.32.88-2.64,1.75-3.96,2.63-.65.44-1.29.87-1.94,1.3-.46.3-1.49,1.02-1.99.41-.25-.28-.22-1.04.29-.97.13.02.17-.2.04-.23h0Z"/>
      <path class="cls-1" d="M130.5,118.63c4.47-2.88,8.94-5.75,13.41-8.63,4.49-2.89,8.96-5.81,13.45-8.71,4.46-2.89,8.93-5.78,13.39-8.67,4.48-2.91,8.97-5.81,13.45-8.71,4.46-2.89,8.93-5.8,13.32-8.79.56-.38,1.12-.76,1.67-1.14.29-.19.05-.68-.26-.49-4.52,2.79-9.01,5.63-13.47,8.52-4.48,2.91-8.96,5.82-13.44,8.73-4.46,2.89-8.92,5.79-13.38,8.68-4.48,2.91-8.96,5.82-13.45,8.73-4.46,2.9-8.91,5.81-13.35,8.73-.57.36-1.13.73-1.69,1.1-.39.25-.05.89.35.64h0Z"/>
      <path class="cls-1" d="M143.19,119.29c7.29-5.55,14.7-10.95,22.23-16.16,7.49-5.19,15.09-10.19,22.79-15.02,2.16-1.35,4.32-2.7,6.48-4.02,2.22-1.36,4.46-2.67,6.61-4.11.38-.25.08-.84-.34-.63-2.04,1.06-4.01,2.26-5.97,3.46s-3.92,2.4-5.87,3.62c-3.9,2.44-7.78,4.92-11.61,7.45-7.63,5.02-15.14,10.23-22.53,15.61-4.15,3.02-8.27,6.1-12.33,9.22-.4.31.13.87.53.57h0Z"/>
      <path class="cls-1" d="M155.29,117.98c-1.12.8-2.25,1.6-3.36,2.4-.36.26-.05.86.33.61,6.44-4.22,12.81-8.54,19.17-12.86,6.38-4.33,12.75-8.65,19.12-12.97,3.6-2.45,7.18-4.9,10.71-7.45.34-.24.04-.82-.31-.58-6.5,4.13-12.82,8.52-19.19,12.84-6.37,4.33-12.75,8.65-19.1,13-3.59,2.45-7.18,4.9-10.73,7.4.13.19.27.37.4.56,1.09-.84,2.18-1.68,3.28-2.51.25-.19-.07-.64-.33-.45h0Z"/>
      <path class="cls-1" d="M168.21,117.98c5.13-3.41,10.25-6.83,15.38-10.24,5.1-3.4,10.2-6.83,15.28-10.25,2.87-1.92,5.74-3.86,8.5-5.92.25-.19-.05-.6-.32-.44-5.25,3.16-10.28,6.67-15.37,10.07-5.09,3.41-10.18,6.84-15.27,10.27-2.87,1.93-5.73,3.86-8.59,5.79-.43.29-.05,1.01.38.72h0Z"/>
      <path class="cls-1" d="M183.1,118.23c2.57-2.31,5.22-4.51,7.97-6.6,2.74-2.09,5.56-4.02,8.4-5.94,1.61-1.09,3.27-2.14,4.92-3.18.31-.19.06-.68-.28-.5-6.15,3.24-11.85,7.24-17.2,11.65-1.53,1.25-3.02,2.55-4.48,3.86-.47.42.2,1.14.67.71h0Z"/>
      <path class="cls-1" d="M66.53,176.06c-2,1.47-3.99,2.95-6.01,4.39.08.11.16.22.24.33,3.09-2.27,6.1-4.63,9.16-6.94,3.05-2.3,6.12-4.59,9.21-6.84,6.18-4.52,12.43-8.93,18.75-13.24,3.55-2.43,7.08-4.88,10.65-7.28.24-.15.03-.54-.21-.39-3.23,2.1-6.46,4.19-9.64,6.36-3.18,2.18-6.34,4.38-9.49,6.59-6.23,4.41-12.39,8.91-18.48,13.5-1.71,1.28-3.39,2.59-5.08,3.9-1.72,1.34-3.48,2.65-5.16,4.05-.2.17.08.47.28.3,1.95-1.56,3.92-3.08,5.89-4.6.08-.07-.03-.19-.12-.12h0Z"/>
      <path class="cls-1" d="M60.14,188.46c7.46-5.46,14.99-10.84,22.58-16.12,7.58-5.27,15.24-10.41,22.99-15.42,4.33-2.8,8.64-5.66,12.99-8.44.31-.19.05-.7-.27-.5-3.99,2.41-7.96,4.84-11.89,7.36-3.89,2.48-7.73,5.04-11.56,7.61-7.67,5.14-15.24,10.42-22.73,15.8-4.21,3.04-8.35,6.16-12.48,9.31-.27.21.09.58.36.39h0Z"/>
      <path class="cls-1" d="M75.52,185.88c7.52-5,14.88-10.24,22.29-15.39,7.41-5.17,14.84-10.32,22.24-15.5,4.13-2.9,8.25-5.82,12.33-8.79.34-.24-.08-.83-.43-.6-7.51,5.02-14.91,10.2-22.31,15.37-7.4,5.18-14.82,10.33-22.22,15.53-4.13,2.89-8.27,5.78-12.34,8.75-.36.27.08.88.45.64h0Z"/>
      <path class="cls-1" d="M89.88,180.44c-1.23,1.06-2.48,2.12-3.72,3.18-.37.32.1.99.51.7,3.06-2.15,6.14-4.26,9.19-6.41,3.05-2.15,6.11-4.3,9.16-6.46,6.09-4.28,12.19-8.56,18.26-12.87,3.42-2.43,6.9-4.78,10.21-7.35.42-.32-.09-1.04-.54-.75-3.12,2.01-6.12,4.21-9.14,6.35-3.06,2.15-6.11,4.32-9.15,6.49-6.07,4.32-12.16,8.63-18.22,12.94-3.41,2.42-6.79,4.88-10.19,7.3.16.23.34.47.5.71,1.23-1.08,2.47-2.14,3.69-3.22.4-.36-.16-.96-.57-.61h0Z"/>
      <path class="cls-1" d="M103.65,176.99c-2.06,1.35-4.13,2.7-6.21,4.06.16.28.31.56.47.85,8.03-5.61,16.03-11.26,24.03-16.92,2.23-1.58,4.47-3.12,6.62-4.81.42-.34-.1-1.06-.56-.77-2.06,1.31-4.04,2.74-6.04,4.16-2,1.42-4,2.84-5.99,4.26-3.95,2.81-7.92,5.6-11.86,8.43-2.22,1.59-4.44,3.19-6.67,4.79-.21.15-.32.4-.19.65.12.21.44.34.66.19,2.05-1.38,4.1-2.77,6.15-4.16.45-.3.06-1.05-.41-.74h0Z"/>
      <path class="cls-1" d="M116.01,175.98c-1.58,1.1-3.15,2.19-4.74,3.29.21.29.43.58.63.88,5.76-4.43,11.88-8.38,18.24-11.89,1.81-1,3.67-1.95,5.46-3,.46-.26.09-.89-.38-.69-1.71.67-3.36,1.51-4.99,2.37s-3.24,1.75-4.82,2.69c-3.17,1.87-6.25,3.88-9.25,6.01-1.7,1.2-3.36,2.44-5,3.72-.49.38.12,1.23.63.88,1.58-1.11,3.15-2.21,4.72-3.31.25-.16.36-.45.22-.72-.13-.24-.49-.38-.72-.22h0Z"/>
      <path class="cls-1" d="M132.51,176.33c.6.02.63-.91.03-.93s-.63.91-.03.93h0Z"/>
      <path class="cls-1" d="M2.06,21.65c5.85-2.78,11.42-6.24,16.37-10.44,1.4-1.19,2.75-2.42,4.07-3.69.22-.2-.09-.53-.31-.33-4.79,4.31-10.02,8.08-15.52,11.44-1.56.95-3.16,1.86-4.77,2.72-.2.11-.04.41.17.31h0Z"/>
      <path class="cls-1" d="M3.04,30.36c1.03-.82,2.15-1.53,3.16-2.38,1-.84,2.01-1.68,3.02-2.52,2.01-1.68,4.03-3.36,6.02-5.07,1.13-.97,2.3-1.9,3.34-2.96.29-.3-.07-.87-.44-.62-1.06.74-2.04,1.59-3.03,2.42-1.02.86-2.05,1.71-3.06,2.58-1.99,1.71-3.98,3.42-5.97,5.12-1.15.99-2.19,2.08-3.31,3.1-.2.18.08.48.29.31h0Z"/>
      <path class="cls-1" d="M1.49,39.01c1.48-.94,2.89-1.97,4.31-2.98,1.41-1,2.82-1.99,4.23-2.99,2.83-2,5.67-4.01,8.51-6.01,1.58-1.11,3.14-2.23,4.68-3.39.24-.18-.05-.59-.3-.42-2.88,1.93-5.7,3.96-8.53,5.97-2.83,2.01-5.66,4.02-8.5,6.02-1.57,1.12-3.17,2.2-4.69,3.38-.22.18.05.57.3.42h0Z"/>
      <path class="cls-1" d="M5.04,45.4c-1.71.85-2.75,2.88-2.39,4.76.04.23.32.22.44.07,2.92-3.63,6.13-7.06,9.57-10.2,3.42-3.14,7.12-5.95,10.99-8.5,2.2-1.45,4.44-2.83,6.73-4.11.27-.15.05-.55-.22-.42-4.25,2.07-8.21,4.57-11.97,7.43-3.76,2.86-7.26,6.03-10.48,9.47-1.8,1.92-3.46,3.97-5.04,6.08.15.02.3.05.44.08-.39-1.78.42-3.62,2.03-4.47.11-.07.01-.23-.1-.17h0Z"/>
      <path class="cls-1" d="M.87,58.78c5.47-4.19,10.89-8.42,16.38-12.59,5.47-4.16,11-8.24,16.54-12.33,3.12-2.3,6.28-4.54,9.35-6.91.26-.21-.07-.66-.35-.48-2.88,1.9-5.66,3.94-8.45,5.96-2.79,2.01-5.55,4.06-8.3,6.11-5.53,4.13-11.02,8.31-16.46,12.56-3.06,2.39-6.08,4.81-9.08,7.27-.27.22.1.61.37.4h0Z"/>
      <path class="cls-1" d="M.62,64.99c6.06-4.3,11.95-8.86,17.8-13.43,5.87-4.6,11.68-9.27,17.43-14.02,3.23-2.67,6.53-5.3,9.62-8.15.35-.32-.14-.81-.5-.53-2.93,2.3-5.74,4.76-8.61,7.14-2.87,2.38-5.75,4.74-8.65,7.08-5.77,4.66-11.59,9.22-17.45,13.75-3.32,2.56-6.68,5.09-9.99,7.68-.26.2.07.67.35.47h0Z"/>
      <path class="cls-1" d="M3.44,73.09c2.01-1.63,3.97-3.35,5.95-5.02,1.97-1.66,3.94-3.31,5.93-4.95,3.99-3.28,8.02-6.52,12.09-9.71,4.07-3.19,8.19-6.32,12.34-9.4,4.16-3.08,8.36-6.1,12.6-9.06,4.24-2.97,8.52-5.86,12.74-8.86.51-.36,1.01-.76,1.51-1.13.23-.16-.05-.53-.29-.4-4.47,2.62-8.77,5.54-13.02,8.51-4.23,2.96-8.42,5.97-12.57,9.04-4.15,3.08-8.27,6.2-12.33,9.39-4.09,3.2-8.14,6.45-12.13,9.77-3.97,3.31-7.89,6.67-11.77,10.09-.49.43-.96.89-1.44,1.34-.25.24.11.61.37.39h0Z"/>
      <path class="cls-1" d="M6.4,77.5c-1.54,1.61-3.05,3.25-4.65,4.81-.22.23.09.55.33.36,4.27-3.34,8.43-6.85,12.66-10.25,4.22-3.41,8.49-6.76,12.81-10.05,4.32-3.29,8.69-6.52,13.09-9.7,4.4-3.17,8.85-6.27,13.33-9.33,4.49-3.05,9.06-5.97,13.55-9.02.56-.38,1.12-.76,1.69-1.15.43-.29.07-1.01-.4-.73-2.33,1.39-4.63,2.82-6.89,4.31-2.29,1.5-4.56,3.02-6.82,4.55-4.52,3.06-8.99,6.17-13.42,9.36-4.39,3.16-8.75,6.38-13.06,9.67-4.34,3.3-8.62,6.67-12.86,10.09-4.24,3.42-8.41,6.9-12.5,10.51-.51.45-1.01.91-1.5,1.37.12.12.23.24.33.36,1.46-1.7,2.99-3.33,4.49-4.99.11-.12-.06-.3-.17-.18h0Z"/>
      <path class="cls-1" d="M9.9,85.07c-1.53,1.52-3.05,3.03-4.57,4.55-.27.26.11.67.39.42,4.37-3.64,8.73-7.31,13.09-10.96,4.37-3.65,8.77-7.23,13.23-10.76,4.48-3.55,9-7.04,13.56-10.46,4.56-3.42,9.15-6.77,13.78-10.07,4.63-3.29,9.3-6.5,13.89-9.85.59-.42,1.18-.85,1.76-1.27.3-.21.05-.72-.28-.52-2.44,1.5-4.85,3.02-7.23,4.63-2.35,1.6-4.69,3.22-7.01,4.85-4.67,3.28-9.28,6.66-13.85,10.08-4.57,3.42-9.1,6.89-13.58,10.44-4.48,3.53-8.92,7.14-13.31,10.79-4.38,3.65-8.75,7.34-12.92,11.24-.51.48-1.03.96-1.54,1.44.13.14.26.28.39.42,1.45-1.6,2.9-3.2,4.34-4.81.1-.1-.05-.28-.16-.17h0Z"/>
      <path class="cls-1" d="M5.45,99.54c3.9-3.46,7.67-7.06,11.54-10.56,3.88-3.49,7.79-6.92,11.76-10.31,3.97-3.38,7.99-6.7,12.05-9.96,4.04-3.25,8.12-6.46,12.24-9.61,4.14-3.16,8.34-6.25,12.49-9.39.52-.4,1.03-.78,1.56-1.17.27-.21-.07-.67-.35-.48-4.31,2.91-8.52,5.95-12.68,9.08-4.17,3.13-8.29,6.31-12.36,9.58-4.09,3.27-8.12,6.61-12.11,10.01-3.97,3.38-7.89,6.81-11.76,10.3-3.87,3.49-7.7,7.03-11.43,10.67-.46.46-.92.93-1.37,1.4-.27.27.12.68.41.43h0Z"/>
      <path class="cls-1" d="M5.4,105.99c-1.3,1.85-2.58,3.72-3.92,5.55-.25.34.25.67.54.44,3.4-2.68,6.72-5.48,10.04-8.27,3.32-2.78,6.63-5.57,9.95-8.36,6.6-5.54,13.18-11.1,19.76-16.65,3.7-3.13,7.42-6.25,11.03-9.48.43-.39-.17-1-.61-.65-6.78,5.41-13.33,11.09-19.95,16.68-6.58,5.56-13.14,11.14-19.71,16.71-3.7,3.14-7.42,6.25-11,9.51.19.15.37.3.54.44,1.2-1.9,2.46-3.79,3.71-5.67.16-.25-.23-.48-.39-.25h0Z"/>
      <path class="cls-1" d="M6.43,115.9c-2.78,1.49-4.81,4.34-5.28,7.45-.05.33.4.6.67.41,4.62-3.16,9.13-6.46,13.52-9.93,4.39-3.47,8.67-7.07,12.84-10.81,2.36-2.12,4.6-4.38,6.83-6.63.37-.36-.17-.93-.55-.58-2.05,1.88-4.12,3.75-6.23,5.57-2.1,1.83-4.15,3.71-6.27,5.52-4.22,3.61-8.57,7.05-12.96,10.43-2.5,1.92-5.04,3.8-7.6,5.63.22.13.44.27.67.41.39-2.91,2.1-5.49,4.67-6.95.33-.19.05-.7-.29-.53h0Z"/>
      <path class="cls-1" d="M8.47,124.56c-2.4,2.38-4.82,4.76-7.27,7.1-.41.4.16.96.6.63,1.05-.76,2.11-1.5,3.15-2.28,1.03-.77,2.06-1.56,3.09-2.33,2.01-1.52,4.04-3.05,6.05-4.58,4.08-3.08,8.12-6.2,12.16-9.34,2.28-1.77,4.52-3.58,6.76-5.41.33-.28-.09-.87-.44-.62-8.34,5.97-16.44,12.28-24.55,18.55-1.14.88-2.29,1.78-3.43,2.66-1.14.88-2.25,1.8-3.37,2.71.2.21.4.42.6.63,2.34-2.46,4.7-4.89,7.08-7.31.27-.27-.13-.7-.41-.43h0Z"/>
      <path class="cls-1" d="M15.08,132.85c2.28-1.73,4.54-3.46,6.82-5.19,1.15-.87,2.29-1.74,3.45-2.62,1.14-.87,2.23-1.82,3.35-2.71,1.26-1.01,2.53-2.02,3.76-3.06.26-.21-.06-.67-.34-.48-2.36,1.63-4.67,3.33-7.02,4.99-2.35,1.65-4.6,3.48-6.89,5.22-1.31.99-2.63,1.99-3.94,2.98-.25.2-.23.62-.03.84.23.25.58.22.84.03h0Z"/>
    </g>
  </g>
</svg>